<svg width="81" height="22" fill="none" xmlns="http://www.w3.org/2000/svg"><g clip-path="url(#clip0)"><path d="M59.675 1.576C59.675.706 60.38 0 61.25 0h18.163c.87 0 1.575.706 1.575 1.576v18.848c0 .87-.705 1.576-1.575 1.576H61.25c-.87 0-1.575-.706-1.575-1.575V1.575v.001zM.012 18.428h8.895v-2.995H3.23V4.005H.011v14.423zm13.398 0V8.494h-3.22v9.934h3.22zM11.8 7.138c1.123 0 1.822-.763 1.822-1.717-.02-.974-.699-1.716-1.8-1.716s-1.821.742-1.821 1.716c0 .954.699 1.717 1.779 1.717h.02zm3.105 11.29h3.219V12.88c0-.296.02-.593.106-.805.232-.593.762-1.208 1.651-1.208 1.166 0 1.632.911 1.632 2.246v5.315h3.218v-5.696c0-3.051-1.588-4.471-3.706-4.471-1.736 0-2.5.995-2.923 1.674h.022v-1.44h-3.22c.043.931 0 9.933 0 9.933zM29.273 4.005h-3.22v14.423h3.22v-3.22l.805-1.04 2.52 4.26h3.96l-4.235-6.167 3.706-4.195h-3.875s-2.648 3.753-2.88 4.199v-8.26z" fill="#fff"/><path d="M45.166 14.284c.043-.255.106-.744.106-1.298 0-2.567-1.27-5.175-4.617-5.175-3.579 0-5.231 2.904-5.231 5.537 0 3.257 2.012 5.291 5.528 5.291 1.398 0 2.689-.211 3.748-.656l-.423-2.181c-.869.295-1.758.444-2.86.444-1.503 0-2.816-.634-2.922-1.983l6.671.02v.001zm-6.692-2.234c.085-.847.636-2.098 2.012-2.098 1.461 0 1.8 1.335 1.8 2.098h-3.812zm14.744-8.045v4.993h-.042c-.466-.699-1.44-1.165-2.732-1.165-2.478 0-4.66 2.034-4.638 5.51 0 3.22 1.97 5.318 4.426 5.318 1.334 0 2.605-.594 3.24-1.738h.064l.127 1.505h2.86c-.043-.7-.086-1.907-.086-3.094V4.005h-3.219zm0 9.825c0 .254-.02.509-.064.72-.19.911-.952 1.547-1.884 1.547-1.334 0-2.203-1.102-2.203-2.84 0-1.63.742-2.945 2.224-2.945.996 0 1.694.7 1.885 1.568.042.191.042.403.042.593v1.357z" fill="#fff"/><path d="M66.136 18.416V8.482h-3.22v9.934h3.22zm-1.61-11.29c1.123 0 1.822-.763 1.822-1.716-.021-.975-.7-1.717-1.8-1.717-1.102 0-1.822.742-1.822 1.717 0 .953.699 1.716 1.78 1.716h.02zm3.391 11.29h3.22V12.87c0-.296.02-.594.105-.805.233-.594.763-1.208 1.652-1.208 1.165 0 1.63.91 1.63 2.246v5.314h3.22V12.72c0-3.05-1.588-4.47-3.706-4.47-1.737 0-2.5.995-2.923 1.673h.022v-1.44h-3.22c.043.931 0 9.933 0 9.933z" fill="#362F7C"/></g><defs><clipPath id="clip0"><path fill="#fff" d="M0 0h81v22H0z"/></clipPath></defs></svg>