<svg width="150" height="168" fill="none" xmlns="http://www.w3.org/2000/svg"><g filter="url(#filter0_d)"><path d="M70 1.887a10 10 0 0110 0l60.148 34.726a10 10 0 015 8.66v69.454c0 3.572-1.906 6.873-5 8.66L80 158.113a9.997 9.997 0 01-10 0L9.852 123.387a10.001 10.001 0 01-5-8.66V45.273a10 10 0 015-8.66L70 1.887z" fill="#2E2E2E"/><path d="M71.25 4.052a7.5 7.5 0 017.5 0l60.148 34.726a7.499 7.499 0 013.75 6.495v69.454a7.5 7.5 0 01-3.75 6.495L78.75 155.948a7.499 7.499 0 01-7.5 0l-60.148-34.726a7.5 7.5 0 01-3.75-6.495V45.273a7.5 7.5 0 013.75-6.495L71.25 4.052z" stroke="url(#paint0_linear)" stroke-width="5"/></g><defs><linearGradient id="paint0_linear" x1="-26" y1="21.5" x2="75" y2="161" gradientUnits="userSpaceOnUse"><stop stop-color="#00C6FB"/><stop offset=".269" stop-color="#2575FC"/><stop offset=".483" stop-color="#04BEFE"/><stop offset=".644" stop-color="#1D8FE1"/><stop offset=".776" stop-color="#2E69F6"/><stop offset=".859" stop-color="#5277F7"/><stop offset="1" stop-color="#48C6EF"/></linearGradient><filter id="filter0_d" x=".852" y=".547" width="148.296" height="166.906" filterUnits="userSpaceOnUse" color-interpolation-filters="sRGB"><feFlood flood-opacity="0" result="BackgroundImageFix"/><feColorMatrix in="SourceAlpha" values="0 0 0 0 0 0 0 0 0 0 0 0 0 0 0 0 0 0 127 0"/><feOffset dy="4"/><feGaussianBlur stdDeviation="2"/><feColorMatrix values="0 0 0 0 0 0 0 0 0 0 0 0 0 0 0 0 0 0 0.25 0"/><feBlend in2="BackgroundImageFix" result="effect1_dropShadow"/><feBlend in="SourceGraphic" in2="effect1_dropShadow" result="shape"/></filter></defs></svg>