<svg width="80" height="80" fill="none" xmlns="http://www.w3.org/2000/svg"><g filter="url(#filter0_d)"><path d="M4 9.6A9.6 9.6 0 0113.6 0h52.8A9.6 9.6 0 0176 9.6v52.8a9.6 9.6 0 01-9.6 9.6H13.6A9.6 9.6 0 014 62.4V9.6z" fill="#fff"/><path d="M4 9.677C4 4.333 8.298 0 13.6 0h52.8C71.702 0 76 4.333 76 9.677V15H4V9.677z" fill="#D2D2D2"/><path d="M56 7.778C56 6.796 56.836 6 57.867 6h10.266C69.164 6 70 6.796 70 7.778v.444C70 9.204 69.164 10 68.133 10H57.867C56.836 10 56 9.204 56 8.222v-.444z" fill="#1D8FE1"/><path d="M11 6.889c0-.491.537-.889 1.2-.889h3.6c.663 0 1.2.398 1.2.889V9.11c0 .491-.537.889-1.2.889h-3.6c-.663 0-1.2-.398-1.2-.889V6.89z" fill="#1AAE20"/><path d="M18 6.889c0-.491.358-.889.8-.889h2.4c.442 0 .8.398.8.889V9.11c0 .491-.358.889-.8.889h-2.4c-.442 0-.8-.398-.8-.889V6.89z" fill="#E9BC1C"/><path d="M24 6.889c0-.491.448-.889 1-.889h3c.552 0 1 .398 1 .889V9.11c0 .491-.448.889-1 .889h-3c-.552 0-1-.398-1-.889V6.89z" fill="#E92828"/><path d="M15 30.926c0-.511.482-.926 1.077-.926h4.846c.595 0 1.077.415 1.077.926v23.148c0 .511-.482.926-1.077.926h-4.846c-.595 0-1.077-.415-1.077-.926V30.926z" fill="url(#paint0_linear)"/><path d="M23 41.903c0-.499.482-.903 1.077-.903h4.846c.595 0 1.077.404 1.077.903v12.194c0 .499-.482.903-1.077.903h-4.846c-.595 0-1.077-.404-1.077-.903V41.903z" fill="url(#paint1_linear)"/><path d="M33 32.979c0-.54.344-.979.77-.979h3.46c.426 0 .77.438.77.979V54.02c0 .54-.344.979-.77.979h-3.46c-.426 0-.77-.438-.77-.979V32.98z" fill="url(#paint2_linear)"/><path d="M41 48.933c0-.515.413-.933.923-.933h4.154c.51 0 .923.418.923.933v5.134a.928.928 0 01-.923.933h-4.154a.928.928 0 01-.923-.933v-5.134z" fill="url(#paint3_linear)"/><path d="M49 27.933c0-.515.482-.933 1.077-.933h4.846c.595 0 1.077.418 1.077.933v26.134c0 .515-.482.933-1.077.933h-4.846c-.595 0-1.077-.418-1.077-.933V27.933z" fill="url(#paint4_linear)"/><path d="M58 41.903c0-.499.482-.903 1.077-.903h4.846c.595 0 1.077.404 1.077.903v12.194c0 .499-.482.903-1.077.903h-4.846c-.595 0-1.077-.404-1.077-.903V41.903z" fill="url(#paint5_linear)"/></g><defs><linearGradient id="paint0_linear" x1="15" y1="42.5" x2="22" y2="42.5" gradientUnits="userSpaceOnUse"><stop stop-color="#4FACFE"/><stop offset="1" stop-color="#00F2FE"/></linearGradient><linearGradient id="paint1_linear" x1="23" y1="48" x2="30" y2="48" gradientUnits="userSpaceOnUse"><stop stop-color="#89F7FE"/><stop offset="1" stop-color="#66A6FF"/></linearGradient><linearGradient id="paint2_linear" x1="33" y1="43.5" x2="38" y2="43.5" gradientUnits="userSpaceOnUse"><stop stop-color="#16D9E3"/><stop offset=".47" stop-color="#30C7EC"/><stop offset="1" stop-color="#46AEF7"/></linearGradient><linearGradient id="paint3_linear" x1="41" y1="51.5" x2="47" y2="51.5" gradientUnits="userSpaceOnUse"><stop stop-color="#48C6EF"/><stop offset="1" stop-color="#6F86D6"/></linearGradient><linearGradient id="paint4_linear" x1="49" y1="41" x2="56" y2="41" gradientUnits="userSpaceOnUse"><stop stop-color="#00C6FB"/><stop offset="1" stop-color="#005BEA"/></linearGradient><linearGradient id="paint5_linear" x1="58" y1="48" x2="65" y2="48" gradientUnits="userSpaceOnUse"><stop stop-color="#4481EB"/><stop offset="1" stop-color="#04BEFE"/></linearGradient><filter id="filter0_d" x="0" y="0" width="80" height="80" filterUnits="userSpaceOnUse" color-interpolation-filters="sRGB"><feFlood flood-opacity="0" result="BackgroundImageFix"/><feColorMatrix in="SourceAlpha" values="0 0 0 0 0 0 0 0 0 0 0 0 0 0 0 0 0 0 127 0"/><feOffset dy="4"/><feGaussianBlur stdDeviation="2"/><feColorMatrix values="0 0 0 0 0 0 0 0 0 0 0 0 0 0 0 0 0 0 0.25 0"/><feBlend in2="BackgroundImageFix" result="effect1_dropShadow"/><feBlend in="SourceGraphic" in2="effect1_dropShadow" result="shape"/></filter></defs></svg>