<svg width="80" height="81" fill="none" xmlns="http://www.w3.org/2000/svg"><g filter="url(#filter0_d)"><path d="M4 10.538C4 5.242 8.298.95 13.6.95h52.8c5.302 0 9.6 4.293 9.6 9.59v52.74c0 5.295-4.298 9.588-9.6 9.588H13.6c-5.302 0-9.6-4.293-9.6-9.589v-52.74z" fill="#fff"/><path d="M4 10.615C4 5.277 8.298.95 13.6.95h52.8c5.302 0 9.6 4.328 9.6 9.666v5.317H4v-5.317z" fill="#D2D2D2"/><path d="M56 8.718c0-.98.836-1.776 1.867-1.776h10.266c1.031 0 1.867.795 1.867 1.776v.444c0 .98-.836 1.776-1.867 1.776H57.867c-1.031 0-1.867-.795-1.867-1.776v-.444z" fill="#1D8FE1"/><path d="M12 7.83c0-.49.358-.888.8-.888h2.4c.442 0 .8.398.8.888v2.22c0 .49-.358.888-.8.888h-2.4c-.442 0-.8-.398-.8-.888V7.83z" fill="#1AAE20"/><path d="M18 7.83c0-.49.448-.888 1-.888h3c.552 0 1 .398 1 .888v2.22c0 .49-.448.888-1 .888h-3c-.552 0-1-.398-1-.888V7.83z" fill="#E9BC1C"/><path d="M24 7.83c0-.49.448-.888 1-.888h3c.552 0 1 .398 1 .888v2.22c0 .49-.448.888-1 .888h-3c-.552 0-1-.398-1-.888V7.83z" fill="#E92828"/><path d="M31.361 45.898c-2.318 0-4.124-.646-5.419-1.937C24.647 42.653 24 40.788 24 38.364v-9.447h3.117v9.328c0 3.284 1.423 4.927 4.268 4.927 2.83 0 4.244-1.643 4.244-4.927v-9.328h3.07v9.447c0 2.424-.648 4.29-1.943 5.597-1.279 1.291-3.077 1.937-5.395 1.937zm22.042-.239l-4.555-6.362-4.508 6.362h-3.55l6.234-8.538-5.898-8.204h3.525l4.292 5.956 4.244-5.956h3.38l-5.874 8.084L57 45.659h-3.597z" fill="#1D8FE1"/></g><defs><filter id="filter0_d" x="0" y=".949" width="80" height="79.918" filterUnits="userSpaceOnUse" color-interpolation-filters="sRGB"><feFlood flood-opacity="0" result="BackgroundImageFix"/><feColorMatrix in="SourceAlpha" values="0 0 0 0 0 0 0 0 0 0 0 0 0 0 0 0 0 0 127 0"/><feOffset dy="4"/><feGaussianBlur stdDeviation="2"/><feColorMatrix values="0 0 0 0 0 0 0 0 0 0 0 0 0 0 0 0 0 0 0.25 0"/><feBlend in2="BackgroundImageFix" result="effect1_dropShadow"/><feBlend in="SourceGraphic" in2="effect1_dropShadow" result="shape"/></filter></defs></svg>