<svg width="80" height="81" fill="none" xmlns="http://www.w3.org/2000/svg"><g filter="url(#filter0_d)"><path d="M4 10.535C4 5.239 8.298.945 13.6.945h52.8c5.302 0 9.6 4.294 9.6 9.59v52.74c0 5.296-4.298 9.589-9.6 9.589H13.6c-5.302 0-9.6-4.293-9.6-9.59v-52.74z" fill="#fff"/><path d="M4 9.968C4 4.985 8.298.946 13.6.946h52.8c5.302 0 9.6 4.039 9.6 9.022v4.962H4V9.968z" fill="#D2D2D2"/><path d="M55 8.715c0-.981.895-1.776 2-1.776h11c1.105 0 2 .795 2 1.776v.444c0 .98-.895 1.775-2 1.775H57c-1.105 0-2-.795-2-1.775v-.444z" fill="#1D8FE1"/><path d="M11 7.827c0-.49.448-.888 1-.888h3c.552 0 1 .397 1 .888v2.22c0 .49-.448.887-1 .887h-3c-.552 0-1-.397-1-.887v-2.22z" fill="#1AAE20"/><path d="M18 7.827c0-.49.448-.888 1-.888h3c.552 0 1 .397 1 .888v2.22c0 .49-.448.887-1 .887h-3c-.552 0-1-.397-1-.887v-2.22z" fill="#E9BC1C"/><path d="M25 7.827c0-.49.358-.888.8-.888h2.4c.442 0 .8.397.8.888v2.22c0 .49-.358.887-.8.887h-2.4c-.442 0-.8-.397-.8-.887v-2.22z" fill="#E92828"/><g filter="url(#filter1_d)"><path d="M31 25.888c0-1.087.827-1.968 1.846-1.968h14.308c1.02 0 1.846.88 1.846 1.968v29.026c0 1.087-.827 1.968-1.846 1.968H32.846c-1.02 0-1.846-.88-1.846-1.968V25.888z" fill="#fff"/></g><path d="M31 26.14c0-1.227.827-2.22 1.846-2.22h14.308c1.02 0 1.846.993 1.846 2.22v2.774H31v-2.775zm18 28.079c0 1.47-.827 2.663-1.846 2.663H32.846c-1.02 0-1.846-1.192-1.846-2.663v-3.33h18v3.33z" fill="#1D8FE1"/><path d="M41 52.887a1 1 0 11-1.999-.001 1 1 0 011.999 0z" fill="#005BEA"/><path d="M37.539 37.757l-3.397 1.368 3.397 1.368v1.103L33 39.698v-1.145l4.539-1.898v1.102zm3.582-3.849h1.103l-3.25 9.989h-1.102l3.25-9.989zM47 38.553v1.145l-4.539 1.898v-1.103l3.397-1.368-3.397-1.368v-1.102L47 38.553z" fill="#000"/></g><defs><filter id="filter0_d" x="0" y=".946" width="80" height="79.918" filterUnits="userSpaceOnUse" color-interpolation-filters="sRGB"><feFlood flood-opacity="0" result="BackgroundImageFix"/><feColorMatrix in="SourceAlpha" values="0 0 0 0 0 0 0 0 0 0 0 0 0 0 0 0 0 0 127 0"/><feOffset dy="4"/><feGaussianBlur stdDeviation="2"/><feColorMatrix values="0 0 0 0 0 0 0 0 0 0 0 0 0 0 0 0 0 0 0.25 0"/><feBlend in2="BackgroundImageFix" result="effect1_dropShadow"/><feBlend in="SourceGraphic" in2="effect1_dropShadow" result="shape"/></filter><filter id="filter1_d" x="27" y="23.92" width="26" height="40.963" filterUnits="userSpaceOnUse" color-interpolation-filters="sRGB"><feFlood flood-opacity="0" result="BackgroundImageFix"/><feColorMatrix in="SourceAlpha" values="0 0 0 0 0 0 0 0 0 0 0 0 0 0 0 0 0 0 127 0"/><feOffset dy="4"/><feGaussianBlur stdDeviation="2"/><feColorMatrix values="0 0 0 0 0 0 0 0 0 0 0 0 0 0 0 0 0 0 0.25 0"/><feBlend in2="BackgroundImageFix" result="effect1_dropShadow"/><feBlend in="SourceGraphic" in2="effect1_dropShadow" result="shape"/></filter></defs></svg>