<svg width="80" height="81" fill="none" xmlns="http://www.w3.org/2000/svg"><g filter="url(#filter0_d)"><path d="M4 10.537C4 5.241 8.298.948 13.6.948h52.8c5.302 0 9.6 4.293 9.6 9.59v52.74c0 5.295-4.298 9.589-9.6 9.589H13.6c-5.302 0-9.6-4.294-9.6-9.59v-52.74z" fill="#fff"/><path d="M4 10.537C4 5.241 8.298.948 13.6.948h52.8c5.302 0 9.6 4.293 9.6 9.59v5.273H4v-5.274z" fill="#D2D2D2"/><path d="M55.84 8.62c0-1.06.86-1.919 1.92-1.919h10.56c1.06 0 1.92.86 1.92 1.918v.48a1.92 1.92 0 01-1.92 1.918H57.76a1.92 1.92 0 01-1.92-1.918v-.48z" fill="#1D8FE1"/><path d="M11.68 7.66c0-.53.43-.959.96-.959h2.88c.53 0 .96.43.96.96v2.397a.96.96 0 01-.96.959h-2.88a.96.96 0 01-.96-.96V7.66z" fill="#1AAE20"/><path d="M17.92 7.66c0-.53.43-.959.96-.959h2.88c.53 0 .96.43.96.96v2.397a.96.96 0 01-.96.959h-2.88a.96.96 0 01-.96-.96V7.66z" fill="#E9BC1C"/><path d="M24.16 7.66c0-.53.43-.959.96-.959H28c.53 0 .96.43.96.96v2.397a.96.96 0 01-.96.959h-2.88a.96.96 0 01-.96-.96V7.66z" fill="#E92828"/><path d="M20.517 39.417l-5.796 2.165 5.796 2.165v1.745l-7.745-3.004v-1.812l7.745-3.004v1.745z" fill="url(#paint0_linear)"/><path d="M23.169 35.709h5.14c1.255 0 2.37.246 3.343.738.975.481 1.73 1.169 2.268 2.064.538.884.807 1.907.807 3.07 0 1.164-.269 2.194-.806 3.089-.538.883-1.294 1.571-2.268 2.064-.975.48-2.09.721-3.344.721h-5.14V35.71zm5.04 9.9c.862 0 1.618-.162 2.268-.486.66-.336 1.164-.806 1.511-1.41.359-.615.538-1.326.538-2.131 0-.806-.18-1.51-.538-2.114a3.419 3.419 0 00-1.511-1.41c-.65-.336-1.406-.504-2.268-.504h-2.857v8.055h2.857z" fill="url(#paint1_linear)"/><path d="M37.048 35.709h2.184v11.746h-2.184V35.71z" fill="url(#paint2_linear)"/><path d="M53.083 35.709l-5.124 11.746h-2.15L40.668 35.71h2.369l3.914 9.061 3.948-9.061h2.184z" fill="url(#paint3_linear)"/><path d="M57.358 33.326h1.882l-5.544 15.807h-1.882l5.544-15.807z" fill="url(#paint4_linear)"/><path d="M67.39 40.676v1.812l-7.745 3.004v-1.745l5.796-2.165-5.796-2.165v-1.745l7.744 3.004z" fill="url(#paint5_linear)"/></g><defs><linearGradient id="paint0_linear" x1="11.68" y1="41.462" x2="68.8" y2="41.462" gradientUnits="userSpaceOnUse"><stop stop-color="#00C6FB"/><stop offset="1" stop-color="#005BEA"/></linearGradient><linearGradient id="paint1_linear" x1="11.68" y1="41.462" x2="68.8" y2="41.462" gradientUnits="userSpaceOnUse"><stop stop-color="#00C6FB"/><stop offset="1" stop-color="#005BEA"/></linearGradient><linearGradient id="paint2_linear" x1="11.68" y1="41.462" x2="68.8" y2="41.462" gradientUnits="userSpaceOnUse"><stop stop-color="#00C6FB"/><stop offset="1" stop-color="#005BEA"/></linearGradient><linearGradient id="paint3_linear" x1="11.68" y1="41.462" x2="68.8" y2="41.462" gradientUnits="userSpaceOnUse"><stop stop-color="#00C6FB"/><stop offset="1" stop-color="#005BEA"/></linearGradient><linearGradient id="paint4_linear" x1="11.68" y1="41.462" x2="68.8" y2="41.462" gradientUnits="userSpaceOnUse"><stop stop-color="#00C6FB"/><stop offset="1" stop-color="#005BEA"/></linearGradient><linearGradient id="paint5_linear" x1="11.68" y1="41.462" x2="68.8" y2="41.462" gradientUnits="userSpaceOnUse"><stop stop-color="#00C6FB"/><stop offset="1" stop-color="#005BEA"/></linearGradient><filter id="filter0_d" x="0" y=".948" width="80" height="79.918" filterUnits="userSpaceOnUse" color-interpolation-filters="sRGB"><feFlood flood-opacity="0" result="BackgroundImageFix"/><feColorMatrix in="SourceAlpha" values="0 0 0 0 0 0 0 0 0 0 0 0 0 0 0 0 0 0 127 0"/><feOffset dy="4"/><feGaussianBlur stdDeviation="2"/><feColorMatrix values="0 0 0 0 0 0 0 0 0 0 0 0 0 0 0 0 0 0 0.25 0"/><feBlend in2="BackgroundImageFix" result="effect1_dropShadow"/><feBlend in="SourceGraphic" in2="effect1_dropShadow" result="shape"/></filter></defs></svg>