<svg width="80" height="81" fill="none" xmlns="http://www.w3.org/2000/svg"><g filter="url(#filter0_d)"><path d="M4 4.946a4 4 0 014-4h64a4 4 0 014 4v63.918a4 4 0 01-4 4H8a4 4 0 01-4-4V4.946z" fill="#fff"/><path d="M4 4.946a4 4 0 014-4h64a4 4 0 014 4v6.863a4 4 0 01-4 4H8a4 4 0 01-4-4V4.946z" fill="#D2D2D2"/><path d="M55.84 8.857c0-1.192.966-2.158 2.157-2.158h10.085a2.157 2.157 0 110 4.315H57.997a2.158 2.158 0 01-2.157-2.157zM13.12 64.474c0-1.192.966-2.158 2.158-2.158h50.405a2.158 2.158 0 010 4.315H15.278a2.158 2.158 0 01-2.158-2.157z" fill="#1D8FE1"/><path d="M11.68 8.7a2 2 0 012-2h.8a2 2 0 012 2v1.114a1.2 1.2 0 01-1.2 1.2h-2.4a1.2 1.2 0 01-1.2-1.2V8.7z" fill="#1AAE20"/><path d="M17.92 8.7a2 2 0 012-2h.8a2 2 0 012 2v1.114a1.2 1.2 0 01-1.2 1.2h-2.4a1.2 1.2 0 01-1.2-1.2V8.7z" fill="#E9BC1C"/><path d="M24.16 8.7a2 2 0 012-2h.8a2 2 0 012 2v1.114a1.2 1.2 0 01-1.2 1.2h-2.4a1.2 1.2 0 01-1.2-1.2V8.7z" fill="#E92828"/><g filter="url(#filter1_d)"><path d="M45.326 33.709a4.842 4.842 0 01-4.846 4.839 4.842 4.842 0 01-4.845-4.84 4.842 4.842 0 014.845-4.839 4.842 4.842 0 014.846 4.84z" stroke="url(#paint0_linear)"/><path d="M49.18 35.676h0l-.01.003a1.9 1.9 0 00-.757.406l.33.376-.33-.376c-.218.192-.39.43-.5.698l.462.192-.462-.192a1.895 1.895 0 00.108 1.67h0l.005.008.671 1.118a1.703 1.703 0 01-2.335 2.338l-1.124-.674h0l-.008-.004a1.897 1.897 0 00-2.777 1.15h0l-.002.008-.317 1.268a1.705 1.705 0 01-3.307 0l-.317-1.268h0l-.003-.009a1.894 1.894 0 00-2.776-1.148h0l-.008.005-1.124.673a1.703 1.703 0 01-2.335-2.338l.671-1.118h0l.005-.007a1.895 1.895 0 00-1.15-2.776h0l-.009-.003-1.272-.317a1.7 1.7 0 010-3.3l1.272-.318h0l.01-.003c.28-.075.54-.214.757-.406l-.33-.376.33.376a1.895 1.895 0 00.392-2.37h0l-.005-.007-.672-1.119a1.702 1.702 0 012.334-2.336l1.125.674h0l.008.004a1.898 1.898 0 002.777-1.15h0l.003-.008.317-1.267a1.704 1.704 0 013.307 0l.317 1.267h0l.002.009a1.894 1.894 0 002.777 1.148h0l.008-.004 1.124-.674a1.703 1.703 0 012.335 2.337l-.672 1.119h0l-.005.008a1.895 1.895 0 001.15 2.775h0l.01.003 1.272.318a1.7 1.7 0 010 3.3l-1.273.317zm-8.7 4.94h0a6.925 6.925 0 004.887-2.025 6.91 6.91 0 002.028-4.882v0a6.902 6.902 0 00-4.269-6.382 6.921 6.921 0 00-7.535 1.497 6.905 6.905 0 004.89 11.792z" stroke="url(#paint1_linear)"/></g><g filter="url(#filter2_d)"><path d="M30.687 52.97l-2.76 1.094 2.76 1.094v.882L27 54.522v-.916l3.687-1.519v.882z" fill="url(#paint2_linear)"/><path d="M31.95 51.095h2.446c.597 0 1.128.124 1.592.373.464.243.824.59 1.08 1.043.256.447.383.965.383 1.553s-.127 1.108-.383 1.56a2.673 2.673 0 01-1.08 1.044c-.464.243-.995.365-1.592.365H31.95v-5.938zm2.398 5.005c.41 0 .77-.082 1.08-.246a1.73 1.73 0 00.72-.713c.17-.311.256-.67.256-1.077 0-.407-.086-.764-.256-1.07a1.672 1.672 0 00-.72-.712 2.21 2.21 0 00-1.08-.254h-1.36V56.1h1.36z" fill="url(#paint3_linear)"/><path d="M38.556 51.095h1.04v5.938h-1.04v-5.938z" fill="url(#paint4_linear)"/><path d="M46.19 51.095l-2.44 5.938h-1.023l-2.447-5.938h1.127l1.864 4.58 1.879-4.58h1.04z" fill="url(#paint5_linear)"/><path d="M48.225 49.89h.895l-2.639 7.991h-.895l2.639-7.99z" fill="url(#paint6_linear)"/><path d="M53 53.606v.916l-3.687 1.518v-.882l2.76-1.094-2.76-1.095v-.882L53 53.606z" fill="url(#paint7_linear)"/></g></g><defs><linearGradient id="paint0_linear" x1="40.48" y1="28.369" x2="40.48" y2="39.048" gradientUnits="userSpaceOnUse"><stop stop-color="#37A7F9"/><stop offset="1" stop-color="#243FCF"/></linearGradient><linearGradient id="paint1_linear" x1="40.48" y1="21.962" x2="40.48" y2="45.455" gradientUnits="userSpaceOnUse"><stop stop-color="#37A7F9"/><stop offset="1" stop-color="#243FCF"/></linearGradient><linearGradient id="paint2_linear" x1="26.48" y1="54.003" x2="53.672" y2="54.003" gradientUnits="userSpaceOnUse"><stop stop-color="#00C6FB"/><stop offset="1" stop-color="#005BEA"/></linearGradient><linearGradient id="paint3_linear" x1="26.48" y1="54.003" x2="53.672" y2="54.003" gradientUnits="userSpaceOnUse"><stop stop-color="#00C6FB"/><stop offset="1" stop-color="#005BEA"/></linearGradient><linearGradient id="paint4_linear" x1="26.48" y1="54.003" x2="53.672" y2="54.003" gradientUnits="userSpaceOnUse"><stop stop-color="#00C6FB"/><stop offset="1" stop-color="#005BEA"/></linearGradient><linearGradient id="paint5_linear" x1="26.48" y1="54.003" x2="53.672" y2="54.003" gradientUnits="userSpaceOnUse"><stop stop-color="#00C6FB"/><stop offset="1" stop-color="#005BEA"/></linearGradient><linearGradient id="paint6_linear" x1="26.48" y1="54.003" x2="53.672" y2="54.003" gradientUnits="userSpaceOnUse"><stop stop-color="#00C6FB"/><stop offset="1" stop-color="#005BEA"/></linearGradient><linearGradient id="paint7_linear" x1="26.48" y1="54.003" x2="53.672" y2="54.003" gradientUnits="userSpaceOnUse"><stop stop-color="#00C6FB"/><stop offset="1" stop-color="#005BEA"/></linearGradient><filter id="filter0_d" x="0" y=".946" width="80" height="79.918" filterUnits="userSpaceOnUse" color-interpolation-filters="sRGB"><feFlood flood-opacity="0" result="BackgroundImageFix"/><feColorMatrix in="SourceAlpha" values="0 0 0 0 0 0 0 0 0 0 0 0 0 0 0 0 0 0 127 0"/><feOffset dy="4"/><feGaussianBlur stdDeviation="2"/><feColorMatrix values="0 0 0 0 0 0 0 0 0 0 0 0 0 0 0 0 0 0 0.25 0"/><feBlend in2="BackgroundImageFix" result="effect1_dropShadow"/><feBlend in="SourceGraphic" in2="effect1_dropShadow" result="shape"/></filter><filter id="filter1_d" x="24.72" y="21.962" width="31.52" height="31.493" filterUnits="userSpaceOnUse" color-interpolation-filters="sRGB"><feFlood flood-opacity="0" result="BackgroundImageFix"/><feColorMatrix in="SourceAlpha" values="0 0 0 0 0 0 0 0 0 0 0 0 0 0 0 0 0 0 127 0"/><feOffset dy="4"/><feGaussianBlur stdDeviation="2"/><feColorMatrix values="0 0 0 0 0 0 0 0 0 0 0 0 0 0 0 0 0 0 0.25 0"/><feBlend in2="BackgroundImageFix" result="effect1_dropShadow"/><feBlend in="SourceGraphic" in2="effect1_dropShadow" result="shape"/></filter><filter id="filter2_d" x="23" y="49.89" width="34" height="15.991" filterUnits="userSpaceOnUse" color-interpolation-filters="sRGB"><feFlood flood-opacity="0" result="BackgroundImageFix"/><feColorMatrix in="SourceAlpha" values="0 0 0 0 0 0 0 0 0 0 0 0 0 0 0 0 0 0 127 0"/><feOffset dy="4"/><feGaussianBlur stdDeviation="2"/><feColorMatrix values="0 0 0 0 0 0 0 0 0 0 0 0 0 0 0 0 0 0 0.25 0"/><feBlend in2="BackgroundImageFix" result="effect1_dropShadow"/><feBlend in="SourceGraphic" in2="effect1_dropShadow" result="shape"/></filter></defs></svg>