<svg width="1805" height="700" fill="none" xmlns="http://www.w3.org/2000/svg"><path opacity=".2" d="M1554.65 662.527l21.65 12.491V700H1533v-24.982l21.65-12.491z" fill="url(#paint0_linear)"/><path opacity=".2" d="M1599.65 662.527l21.65 12.491V700H1578v-24.982l21.65-12.491zm180 0l21.65 12.491V700H1758v-24.982l21.65-12.491zM25 584.583l21.65 12.491v24.982L25 634.547 3.35 622.056v-24.982L25 584.583z" fill="#C4C4C4"/><path opacity=".2" d="M475 584.583l21.651 12.491v24.982L475 634.547l-21.651-12.491v-24.982L475 584.583z" fill="url(#paint1_linear)"/><path opacity=".2" d="M565 584.583l21.651 12.491v24.982L565 634.547l-21.651-12.491v-24.982L565 584.583zm90 0l21.651 12.491v24.982L655 634.547l-21.651-12.491v-24.982L655 584.583zm67 39.471l21.651 12.491v24.982L722 674.019l-21.651-12.492v-24.982L722 624.054zm203-39.471l21.651 12.491v24.982L925 634.547l-21.651-12.491v-24.982L925 584.583zm270 0l21.65 12.491v24.982L1195 634.547l-21.65-12.491v-24.982l21.65-12.491zm180 0l21.65 12.491v24.982L1375 634.547l-21.65-12.491v-24.982l21.65-12.491zm180 0l21.65 12.491v24.982L1555 634.547l-21.65-12.491v-24.982l21.65-12.491zm90 0l21.65 12.491v24.982L1645 634.547l-21.65-12.491v-24.982l21.65-12.491zm90 0l21.65 12.491v24.982L1735 634.547l-21.65-12.491v-24.982l21.65-12.491zM25 506.638l21.65 12.491v24.982L25 556.602 3.35 544.111v-24.982L25 506.638zm90 0l21.651 12.491v24.982L115 556.602l-21.65-12.491v-24.982L115 506.638zm270 0l21.651 12.491v24.982L385 556.602l-21.651-12.491v-24.982L385 506.638zm90 0l21.651 12.491v24.982L475 556.602l-21.651-12.491v-24.982L475 506.638zm180 0l21.651 12.491v24.982L655 556.602l-21.651-12.491v-24.982L655 506.638zm90 0l21.651 12.491v24.982L745 556.602l-21.651-12.491v-24.982L745 506.638zm90 0l21.651 12.491v24.982L835 556.602l-21.651-12.491v-24.982L835 506.638zm180 0l21.65 12.491v24.982L1015 556.602l-21.651-12.491v-24.982L1015 506.638zm180 0l21.65 12.491v24.982L1195 556.602l-21.65-12.491v-24.982l21.65-12.491zm360 0l21.65 12.491v24.982L1555 556.602l-21.65-12.491v-24.982l21.65-12.491zm90 0l21.65 12.491v24.982L1645 556.602l-21.65-12.491v-24.982l21.65-12.491zm90 0l21.65 12.491v24.982L1735 556.602l-21.65-12.491v-24.982l21.65-12.491zM25 428.694l21.65 12.491v24.982L25 478.658 3.35 466.167v-24.982L25 428.694zm90 0l21.651 12.491v24.982L115 478.658l-21.65-12.491v-24.982L115 428.694zm270 0l21.651 12.491v24.982L385 478.658l-21.651-12.491v-24.982L385 428.694zm90 0l21.651 12.491v24.982L475 478.658l-21.651-12.491v-24.982L475 428.694zm810 0l21.65 12.491v24.982L1285 478.658l-21.65-12.491v-24.982l21.65-12.491zm270 0l21.65 12.491v24.982L1555 478.658l-21.65-12.491v-24.982l21.65-12.491zm90 0l21.65 12.491v24.982L1645 478.658l-21.65-12.491v-24.982l21.65-12.491zm90 0l21.65 12.491v24.982L1735 478.658l-21.65-12.491v-24.982l21.65-12.491zM295 350.75l21.651 12.491v24.982L295 400.714l-21.651-12.491v-24.982L295 350.75zm270 0l21.651 12.491v24.982L565 400.714l-21.651-12.491v-24.982L565 350.75zm540 0l21.65 12.491v24.982L1105 400.714l-21.65-12.491v-24.982L1105 350.75zm90 0l21.65 12.491v24.982L1195 400.714l-21.65-12.491v-24.982L1195 350.75zm180 0l21.65 12.491v24.982L1375 400.714l-21.65-12.491v-24.982L1375 350.75zM115 272.805l21.651 12.491v24.982L115 322.769l-21.65-12.491v-24.982L115 272.805zm270 0l21.651 12.491v24.982L385 322.769l-21.651-12.491v-24.982L385 272.805zm90 0l21.651 12.491v24.982L475 322.769l-21.651-12.491v-24.982L475 272.805zm180 0l21.651 12.491v24.982L655 322.769l-21.651-12.491v-24.982L655 272.805zm450 0l21.65 12.491v24.982L1105 322.769l-21.65-12.491v-24.982l21.65-12.491zm90 0l21.65 12.491v24.982L1195 322.769l-21.65-12.491v-24.982l21.65-12.491zm90 0l21.65 12.491v24.982L1285 322.769l-21.65-12.491v-24.982l21.65-12.491zm90 0l21.65 12.491v24.982L1375 322.769l-21.65-12.491v-24.982l21.65-12.491zm360 0l21.65 12.491v24.982L1735 322.769l-21.65-12.491v-24.982l21.65-12.491zM115 194.861l21.651 12.491v24.982L115 244.825l-21.65-12.491v-24.982L115 194.861zm180 0l21.651 12.491v24.982L295 244.825l-21.651-12.491v-24.982L295 194.861zm90 0l21.651 12.491v24.982L385 244.825l-21.651-12.491v-24.982L385 194.861zm180 0l21.651 12.491v24.982L565 244.825l-21.651-12.491v-24.982L565 194.861zm180 0l21.651 12.491v24.982L745 244.825l-21.651-12.491v-24.982L745 194.861zm90 0l21.651 12.491v24.982L835 244.825l-21.651-12.491v-24.982L835 194.861zm90 0l21.651 12.491v24.982L925 244.825l-21.651-12.491v-24.982L925 194.861zm180 0l21.65 12.491v24.982L1105 244.825l-21.65-12.491v-24.982l21.65-12.491zm450 0l21.65 12.491v24.982L1555 244.825l-21.65-12.491v-24.982l21.65-12.491zm180 0l21.65 12.491v24.982L1735 244.825l-21.65-12.491v-24.982l21.65-12.491zM25 116.917l21.65 12.491v24.982L25 166.881 3.35 154.39v-24.982L25 116.917z" fill="#C4C4C4"/><path opacity=".2" d="M115 116.917l21.651 12.491v24.982L115 166.881 93.35 154.39v-24.982L115 116.917z" fill="url(#paint2_linear)"/><path opacity=".2" d="M205 116.917l21.651 12.491v24.982L205 166.881l-21.651-12.491v-24.982L205 116.917zm90 0l21.651 12.491v24.982L295 166.881l-21.651-12.491v-24.982L295 116.917zm90 0l21.651 12.491v24.982L385 166.881l-21.651-12.491v-24.982L385 116.917zm90 0l21.651 12.491v24.982L475 166.881l-21.651-12.491v-24.982L475 116.917zm90 0l21.651 12.491v24.982L565 166.881l-21.651-12.491v-24.982L565 116.917zm360 0l21.651 12.491v24.982L925 166.881l-21.651-12.491v-24.982L925 116.917zm180 0l21.65 12.491v24.982L1105 166.881l-21.65-12.491v-24.982l21.65-12.491zm270 0l21.65 12.491v24.982L1375 166.881l-21.65-12.491v-24.982l21.65-12.491zm90 0l21.65 12.491v24.982L1465 166.881l-21.65-12.491v-24.982l21.65-12.491z" fill="#C4C4C4"/><path opacity=".2" d="M385 38.972l21.651 12.491v24.982L385 88.937l-21.651-12.492V51.463L385 38.973z" fill="url(#paint3_linear)"/><path opacity=".2" d="M475 38.972l21.651 12.491v24.982L475 88.937l-21.651-12.492V51.463L475 38.973z" fill="url(#paint4_linear)"/><path opacity=".2" d="M925 38.972l21.651 12.491v24.982L925 88.937l-21.651-12.492V51.463L925 38.973zm90 0l21.65 12.491v24.982L1015 88.937l-21.651-12.492V51.463L1015 38.973zm270 0l21.65 12.491v24.982L1285 88.937l-21.65-12.492V51.463l21.65-12.49zM47 623.555l21.65 12.491v24.982L47 673.519l-21.65-12.491v-24.982L47 623.555z" fill="#C4C4C4"/><path opacity=".2" d="M362 623.555l21.651 12.491v24.982L362 673.519l-21.651-12.491v-24.982L362 623.555z" fill="url(#paint5_linear)"/><path opacity=".2" d="M542 623.555l21.651 12.491v24.982L542 673.519l-21.651-12.491v-24.982L542 623.555zm360 0l21.651 12.491v24.982L902 673.519l-21.651-12.491v-24.982L902 623.555z" fill="#C4C4C4"/><path opacity=".2" d="M1082 623.555l21.65 12.491v24.982L1082 673.519l-21.65-12.491v-24.982l21.65-12.491z" fill="url(#paint6_linear)"/><path opacity=".2" d="M1082 545.111l21.65 12.491v24.982L1082 595.075l-21.65-12.491v-24.982l21.65-12.491z" fill="url(#paint7_linear)"/><path opacity=".2" d="M1172 623.555l21.65 12.491v24.982L1172 673.519l-21.65-12.491v-24.982l21.65-12.491zm90 0l21.65 12.491v24.982L1262 673.519l-21.65-12.491v-24.982l21.65-12.491zm90 0l21.65 12.491v24.982L1352 673.519l-21.65-12.491v-24.982l21.65-12.491z" fill="#C4C4C4"/><path opacity=".2" d="M1532 623.555l21.65 12.491v24.982L1532 673.519l-21.65-12.491v-24.982l21.65-12.491z" fill="url(#paint8_linear)"/><path opacity=".2" d="M1622 623.555l21.65 12.491v24.982L1622 673.519l-21.65-12.491v-24.982l21.65-12.491zm90-233.833l21.65 12.491v24.982L1712 439.686l-21.65-12.491v-24.982l21.65-12.491zm0-155.889l21.65 12.491v24.982L1712 283.797l-21.65-12.491v-24.982l21.65-12.491zm0-155.889l21.65 12.491v24.983L1712 127.909l-21.65-12.491V90.435l21.65-12.49zM1712 0l21.65 12.491v24.982L1712 49.964l-21.65-12.49V12.49L1712 0zm-90 0l21.65 12.491v24.982L1622 49.964l-21.65-12.49V12.49L1622 0zm-90 0l21.65 12.491v24.982L1532 49.964l-21.65-12.49V12.49L1532 0zM587 .5l21.651 12.491v24.982L587 50.464l-21.651-12.49V12.99L587 .5zm675 0l21.65 12.491v24.982L1262 50.464l-21.65-12.49V12.99L1262 .5zm-180 0l21.65 12.491v24.982L1082 50.464l-21.65-12.49V12.99L1082 .5zm-765 0l21.651 12.491v24.982L317 50.464l-21.651-12.49V12.99L317 .5zm675 0l21.65 12.491v24.982L992 50.464l-21.651-12.49V12.99L992 .5zm-765 0l21.651 12.491v24.982L227 50.464l-21.651-12.49V12.99L227 .5zm675 0l21.651 12.491v24.982L902 50.464l-21.651-12.49V12.99L902 .5zm-90 0l21.651 12.491v24.982L812 50.464l-21.651-12.49V12.99L812 .5zM92 77.944l21.651 12.491v24.983L92 127.909l-21.65-12.491V90.435L92 77.945zm0 155.889l21.651 12.491v24.982L92 283.797l-21.65-12.491v-24.982L92 233.833zm90 311.777l21.651 12.491v24.983L182 595.575l-21.651-12.491v-24.983L182 545.61z" fill="#C4C4C4"/><path opacity=".2" d="M272 545.61l21.651 12.491v24.983L272 595.575l-21.651-12.491v-24.983L272 545.61z" fill="url(#paint9_linear)"/><path opacity=".2" d="M362 545.61l21.651 12.491v24.983L362 595.575l-21.651-12.491v-24.983L362 545.61zm540 0l21.651 12.491v24.983L902 595.575l-21.651-12.491v-24.983L902 545.61zm450 0l21.65 12.491v24.983L1352 595.575l-21.65-12.491v-24.983L1352 545.61z" fill="#C4C4C4"/><path opacity=".2" d="M1442 545.61l21.65 12.491v24.983L1442 595.575l-21.65-12.491v-24.983L1442 545.61z" fill="url(#paint10_linear)"/><path opacity=".2" d="M1622 311.777l21.65 12.491v24.983L1622 361.742l-21.65-12.491v-24.983l21.65-12.491zm0-77.944l21.65 12.491v24.982L1622 283.797l-21.65-12.491v-24.982l21.65-12.491zm0-77.944l21.65 12.491v24.982L1622 205.853l-21.65-12.491V168.38l21.65-12.491z" fill="#C4C4C4"/><path opacity=".2" d="M1442 77.944l21.65 12.491v24.983L1442 127.909l-21.65-12.491V90.435l21.65-12.49z" fill="url(#paint11_linear)"/><path opacity=".2" d="M1352 .5l21.65 12.491v24.982L1352 50.464l-21.65-12.49V12.99L1352 .5z" fill="url(#paint12_linear)"/><path opacity=".2" d="M1442 .5l21.65 12.491v24.982L1442 50.464l-21.65-12.49V12.99L1442 .5z" fill="url(#paint13_linear)"/><path opacity=".2" d="M1172 77.944l21.65 12.491v24.983L1172 127.909l-21.65-12.491V90.435l21.65-12.49zm-90 0l21.65 12.491v24.983L1082 127.909l-21.65-12.491V90.435l21.65-12.49zm-450 0l21.651 12.491v24.983L632 127.909l-21.651-12.491V90.435L632 77.945zm-90 0l21.651 12.491v24.983L542 127.909l-21.651-12.491V90.435L542 77.945zm-180 0l21.651 12.491v24.983L362 127.909l-21.651-12.491V90.435L362 77.945zM182 233.833l21.651 12.491v24.982L182 283.797l-21.651-12.491v-24.982L182 233.833zm0 77.944l21.651 12.491v24.983L182 361.742l-21.651-12.491v-24.983L182 311.777zm0 77.945l21.651 12.491v24.982L182 439.686l-21.651-12.491v-24.982L182 389.722zm0 77.944l21.651 12.491v24.982L182 517.63l-21.651-12.491v-24.982L182 467.666zm360 0l21.651 12.491v24.982L542 517.63l-21.651-12.491v-24.982L542 467.666zm180 0l21.651 12.491v24.982L722 517.63l-21.651-12.491v-24.982L722 467.666zm180 0l21.651 12.491v24.982L902 517.63l-21.651-12.491v-24.982L902 467.666zm90 0l21.65 12.491v24.982L992 517.63l-21.651-12.491v-24.982L992 467.666zm180 0l21.65 12.491v24.982L1172 517.63l-21.65-12.491v-24.982l21.65-12.491zm90 0l21.65 12.491v24.982L1262 517.63l-21.65-12.491v-24.982l21.65-12.491zm90 0l21.65 12.491v24.982L1352 517.63l-21.65-12.491v-24.982l21.65-12.491zm180-233.833l21.65 12.491v24.982L1532 283.797l-21.65-12.491v-24.982l21.65-12.491zm-270-77.944l21.65 12.491v24.982L1262 205.853l-21.65-12.491V168.38l21.65-12.491zm-450 0l21.651 12.491v24.982L812 205.853l-21.651-12.491V168.38L812 155.889zm-360 0l21.651 12.491v24.982L452 205.853l-21.651-12.491V168.38L452 155.889zM272 311.777l21.651 12.491v24.983L272 361.742l-21.651-12.491v-24.983L272 311.777zm0 77.945l21.651 12.491v24.982L272 439.686l-21.651-12.491v-24.982L272 389.722zm90 0l21.651 12.491v24.982L362 439.686l-21.651-12.491v-24.982L362 389.722zm270 0l21.651 12.491v24.982L632 439.686l-21.651-12.491v-24.982L632 389.722zm180 0l21.651 12.491v24.982L812 439.686l-21.651-12.491v-24.982L812 389.722zm180 0l21.65 12.491v24.982L992 439.686l-21.651-12.491v-24.982L992 389.722zm180 0l21.65 12.491v24.982L1172 439.686l-21.65-12.491v-24.982l21.65-12.491zm90 0l21.65 12.491v24.982L1262 439.686l-21.65-12.491v-24.982l21.65-12.491zm90 0l21.65 12.491v24.982L1352 439.686l-21.65-12.491v-24.982l21.65-12.491zm0-155.889l21.65 12.491v24.982L1352 283.797l-21.65-12.491v-24.982l21.65-12.491zm-810 0l21.651 12.491v24.982L542 283.797l-21.651-12.491v-24.982L542 233.833zm-90 0l21.651 12.491v24.982L452 283.797l-21.651-12.491v-24.982L452 233.833zm-90 0l21.651 12.491v24.982L362 283.797l-21.651-12.491v-24.982L362 233.833zm270 77.944l21.651 12.491v24.983L632 361.742l-21.651-12.491v-24.983L632 311.777zM227 623.555l21.651 12.491v24.982L227 673.519l-21.651-12.491v-24.982L227 623.555zm90 0l21.651 12.491v24.982L317 673.519l-21.651-12.491v-24.982L317 623.555zm90 0l21.651 12.491v24.982L407 673.519l-21.651-12.491v-24.982L407 623.555z" fill="#C4C4C4"/><path opacity=".2" d="M587 623.555l21.651 12.491v24.982L587 673.519l-21.651-12.491v-24.982L587 623.555z" fill="url(#paint14_linear)"/><path opacity=".2" d="M677 623.555l21.651 12.491v24.982L677 673.519l-21.651-12.491v-24.982L677 623.555z" fill="#C4C4C4"/><path opacity=".2" d="M857 623.555l21.651 12.491v24.982L857 673.519l-21.651-12.491v-24.982L857 623.555z" fill="url(#paint15_linear)"/><path opacity=".2" d="M993 623.555l21.65 12.491v24.982L993 673.519l-21.651-12.491v-24.982L993 623.555z" fill="url(#paint16_linear)"/><path opacity=".2" d="M1037 623.555l21.65 12.491v24.982L1037 673.519l-21.65-12.491v-24.982l21.65-12.491z" fill="#C4C4C4"/><path opacity=".2" d="M1217 623.555l21.65 12.491v24.982L1217 673.519l-21.65-12.491v-24.982l21.65-12.491z" fill="url(#paint17_linear)"/><path opacity=".2" d="M1397 623.555l21.65 12.491v24.982L1397 673.519l-21.65-12.491v-24.982l21.65-12.491zm270 0l21.65 12.491v24.982L1667 673.519l-21.65-12.491v-24.982l21.65-12.491zM47 545.61l21.65 12.491v24.983L47 595.575l-21.65-12.491v-24.983L47 545.61zm1350 0l21.65 12.491v24.983L1397 595.575l-21.65-12.491v-24.983L1397 545.61zm90 0l21.65 12.491v24.983L1487 595.575l-21.65-12.491v-24.983L1487 545.61z" fill="#C4C4C4"/><path opacity=".2" d="M1757 545.61l21.65 12.491v24.983L1757 595.575l-21.65-12.491v-24.983L1757 545.61z" fill="url(#paint18_linear)"/><path opacity=".2" d="M47 467.666l21.65 12.491v24.982L47 517.63l-21.65-12.491v-24.982L47 467.666z" fill="url(#paint19_linear)"/><path opacity=".2" d="M137 467.666l21.651 12.491v24.982L137 517.63l-21.651-12.491v-24.982L137 467.666zm180 0l21.651 12.491v24.982L317 517.63l-21.651-12.491v-24.982L317 467.666zm360 0l21.651 12.491v24.982L677 517.63l-21.651-12.491v-24.982L677 467.666z" fill="#C4C4C4"/><path opacity=".2" d="M767 467.666l21.651 12.491v24.982L767 517.63l-21.651-12.491v-24.982L767 467.666z" fill="url(#paint20_linear)"/><path opacity=".2" d="M1397 467.666l21.65 12.491v24.982L1397 517.63l-21.65-12.491v-24.982l21.65-12.491zm180 0l21.65 12.491v24.982L1577 517.63l-21.65-12.491v-24.982l21.65-12.491zm90 0l21.65 12.491v24.982L1667 517.63l-21.65-12.491v-24.982l21.65-12.491zM407 389.722l21.651 12.491v24.982L407 439.686l-21.651-12.491v-24.982L407 389.722zm720 0l21.65 12.491v24.982L1127 439.686l-21.65-12.491v-24.982l21.65-12.491zm270 0l21.65 12.491v24.982L1397 439.686l-21.65-12.491v-24.982l21.65-12.491z" fill="#C4C4C4"/><path opacity=".2" d="M1757 389.722l21.65 12.491v24.982L1757 439.686l-21.65-12.491v-24.982l21.65-12.491z" fill="url(#paint21_linear)"/><path opacity=".2" d="M47 311.777l21.65 12.491v24.983L47 361.742l-21.65-12.491v-24.983L47 311.777zm630 0l21.651 12.491v24.983L677 361.742l-21.651-12.491v-24.983L677 311.777zm900 0l21.65 12.491v24.983L1577 361.742l-21.65-12.491v-24.983l21.65-12.491zm90 0l21.65 12.491v24.983L1667 361.742l-21.65-12.491v-24.983l21.65-12.491zM47 233.833l21.65 12.491v24.982L47 283.797l-21.65-12.491v-24.982L47 233.833zm90 0l21.651 12.491v24.982L137 283.797l-21.651-12.491v-24.982L137 233.833zm1080 0l21.65 12.491v24.982L1217 283.797l-21.65-12.491v-24.982l21.65-12.491zm90 0l21.65 12.491v24.982L1307 283.797l-21.65-12.491v-24.982l21.65-12.491zm90 0l21.65 12.491v24.982L1397 283.797l-21.65-12.491v-24.982l21.65-12.491z" fill="#C4C4C4"/><path opacity=".2" d="M47 155.889l21.65 12.491v24.982L47 205.853l-21.65-12.491V168.38L47 155.889z" fill="url(#paint22_linear)"/><path opacity=".2" d="M227 155.889l21.651 12.491v24.982L227 205.853l-21.651-12.491V168.38L227 155.889zm90 0l21.651 12.491v24.982L317 205.853l-21.651-12.491V168.38L317 155.889zm450 0l21.651 12.491v24.982L767 205.853l-21.651-12.491V168.38L767 155.889zm450 0l21.65 12.491v24.982L1217 205.853l-21.65-12.491V168.38l21.65-12.491zM47 77.944l21.65 12.491v24.983L47 127.909l-21.65-12.491V90.435L47 77.945z" fill="#C4C4C4"/><path opacity=".2" d="M407 77.944l21.651 12.491v24.983L407 127.909l-21.651-12.491V90.435L407 77.945z" fill="url(#paint23_linear)"/><path opacity=".2" d="M857 77.944l21.651 12.491v24.983L857 127.909l-21.651-12.491V90.435L857 77.945zm180 0l21.65 12.491v24.983L1037 127.909l-21.65-12.491V90.435l21.65-12.49z" fill="#C4C4C4"/><path opacity=".2" d="M1127 77.944l21.65 12.491v24.983L1127 127.909l-21.65-12.491V90.435l21.65-12.49z" fill="url(#paint24_linear)"/><path opacity=".2" d="M1397 77.944l21.65 12.491v24.983L1397 127.909l-21.65-12.491V90.435l21.65-12.49zm90 0l21.65 12.491v24.983L1487 127.909l-21.65-12.491V90.435l21.65-12.49zm90 0l21.65 12.491v24.983L1577 127.909l-21.65-12.491V90.435l21.65-12.49zm90 0l21.65 12.491v24.983L1667 127.909l-21.65-12.491V90.435l21.65-12.49zM92 .5l21.651 12.491v24.982L92 50.464l-21.65-12.49V12.99L92 .5zm675 0l21.651 12.491v24.982L767 50.464l-21.651-12.49V12.99L767 .5z" fill="#C4C4C4"/><path opacity=".2" d="M362 .5l21.651 12.491v24.982L362 50.464l-21.651-12.49V12.99L362 .5z" fill="url(#paint25_linear)"/><path opacity=".2" d="M1037 .5l21.65 12.491v24.982L1037 50.464l-21.65-12.49V12.99L1037 .5z" fill="url(#paint26_linear)"/><path opacity=".2" d="M452 .5l21.651 12.491v24.982L452 50.464l-21.651-12.49V12.99L452 .5zm675 0l21.65 12.491v24.982L1127 50.464l-21.65-12.49V12.99L1127 .5zm-585 0l21.651 12.491v24.982L542 50.464l-21.651-12.49V12.99L542 .5zm675 0l21.65 12.491v24.982L1217 50.464l-21.65-12.49V12.99L1217 .5zm-585 0l21.651 12.491v24.982L632 50.464l-21.651-12.49V12.99L632 .5zM3 623.555v49.964l21.65-12.491v-24.982L3 623.555z" fill="#C4C4C4"/><path opacity=".2" d="M3 389.722v49.964l21.65-12.491v-24.982L3 389.722z" fill="url(#paint27_linear)"/><path opacity=".2" d="M3 311.777v49.965l21.65-12.491v-24.983L3 311.777zm0-155.888v49.964l21.65-12.491V168.38L3 155.889zM160 38.972l21.651 12.491v24.982L160 88.937l-21.651-12.492V51.463L160 38.973z" fill="#C4C4C4"/><path opacity=".2" d="M520 38.972l21.651 12.491v24.982L520 88.937l-21.651-12.492V51.463L520 38.973z" fill="url(#paint28_linear)"/><path opacity=".2" d="M700 38.972l21.651 12.491v24.982L700 88.937l-21.651-12.492V51.463L700 38.973z" fill="url(#paint29_linear)"/><path opacity=".2" d="M790 38.972l21.651 12.491v24.982L790 88.937l-21.651-12.492V51.463L790 38.973zm540 0l21.65 12.491v24.982L1330 88.937l-21.65-12.492V51.463l21.65-12.49zm-630 77.945l21.651 12.491v24.982L700 166.881l-21.651-12.491v-24.982L700 116.917zm180 0l21.651 12.491v24.982L880 166.881l-21.651-12.491v-24.982L880 116.917zm360 0l21.65 12.491v24.982L1240 166.881l-21.65-12.491v-24.982l21.65-12.491z" fill="#C4C4C4"/><path opacity=".2" d="M1690 116.917l21.65 12.491v24.982L1690 166.881l-21.65-12.491v-24.982l21.65-12.491z" fill="url(#paint30_linear)"/><path opacity=".2" d="M1780 116.917l21.65 12.491v24.982L1780 166.881l-21.65-12.491v-24.982l21.65-12.491z" fill="url(#paint31_linear)"/><path opacity=".2" d="M1150 194.861l21.65 12.491v24.982L1150 244.825l-21.65-12.491v-24.982l21.65-12.491zm-540 77.944l21.651 12.491v24.982L610 322.769l-21.651-12.491v-24.982L610 272.805zm450 0l21.65 12.491v24.982L1060 322.769l-21.65-12.491v-24.982l21.65-12.491zm720 0l21.65 12.491v24.982L1780 322.769l-21.65-12.491v-24.982l21.65-12.491zM520 350.75l21.651 12.491v24.982L520 400.714l-21.651-12.491v-24.982L520 350.75zm540 0l21.65 12.491v24.982L1060 400.714l-21.65-12.491v-24.982L1060 350.75zm450 0l21.65 12.491v24.982L1510 400.714l-21.65-12.491v-24.982L1510 350.75zM160 428.694l21.651 12.491v24.982L160 478.658l-21.651-12.491v-24.982L160 428.694zm90 0l21.651 12.491v24.982L250 478.658l-21.651-12.491v-24.982L250 428.694zm270 0l21.651 12.491v24.982L520 478.658l-21.651-12.491v-24.982L520 428.694zm90 0l21.651 12.491v24.982L610 478.658l-21.651-12.491v-24.982L610 428.694zm180 0l21.651 12.491v24.982L790 478.658l-21.651-12.491v-24.982L790 428.694zm90 0l21.651 12.491v24.982L880 478.658l-21.651-12.491v-24.982L880 428.694zm90 0l21.651 12.491v24.982L970 478.658l-21.651-12.491v-24.982L970 428.694zm90 0l21.65 12.491v24.982L1060 478.658l-21.65-12.491v-24.982l21.65-12.491zm-810 77.944l21.651 12.491v24.982L250 556.602l-21.651-12.491v-24.982L250 506.638zm360 0l21.651 12.491v24.982L610 556.602l-21.651-12.491v-24.982L610 506.638zm450 0l21.65 12.491v24.982L1060 556.602l-21.65-12.491v-24.982l21.65-12.491zm90 0l21.65 12.491v24.982L1150 556.602l-21.65-12.491v-24.982l21.65-12.491z" fill="#C4C4C4"/><path opacity=".2" d="M70 584.583l21.65 12.491v24.982L70 634.547l-21.65-12.491v-24.982L70 584.583z" fill="url(#paint32_linear)"/><path opacity=".2" d="M47 .5l21.65 12.491v24.982L47 50.464l-21.65-12.49V12.99L47 .5z" fill="url(#paint33_linear)"/><path opacity=".2" d="M160 584.583l21.651 12.491v24.982L160 634.547l-21.651-12.491v-24.982L160 584.583zm270 0l21.651 12.491v24.982L430 634.547l-21.651-12.491v-24.982L430 584.583z" fill="#C4C4C4"/><path opacity=".2" d="M610 585.082l21.651 12.491v24.982L610 635.046l-21.651-12.491v-24.982L610 585.082z" fill="url(#paint34_linear)"/><path opacity=".2" d="M812 624.054l21.651 12.491v24.982L812 674.019l-21.651-12.492v-24.982L812 624.054z" fill="#C4C4C4"/><path opacity=".2" d="M1240 584.583l21.65 12.491v24.982L1240 634.547l-21.65-12.491v-24.982l21.65-12.491z" fill="url(#paint35_linear)"/><path opacity=".2" d="M1420 584.583l21.65 12.491v24.982L1420 634.547l-21.65-12.491v-24.982l21.65-12.491z" fill="#C4C4C4"/><defs><linearGradient id="paint0_linear" x1="1533" y1="681.263" x2="1576.3" y2="681.263" gradientUnits="userSpaceOnUse"><stop stop-color="#48C6EF"/><stop offset="1" stop-color="#6F86D6"/></linearGradient><linearGradient id="paint1_linear" x1="450" y1="609.565" x2="500" y2="609.565" gradientUnits="userSpaceOnUse"><stop stop-color="#4FACFE"/><stop offset="1" stop-color="#00F2FE"/></linearGradient><linearGradient id="paint2_linear" x1="90" y1="141.899" x2="140" y2="141.899" gradientUnits="userSpaceOnUse"><stop stop-color="#00C6FB"/><stop offset="1" stop-color="#005BEA"/></linearGradient><linearGradient id="paint3_linear" x1="360" y1="63.954" x2="410" y2="63.954" gradientUnits="userSpaceOnUse"><stop stop-color="#48C6EF"/><stop offset="1" stop-color="#6F86D6"/></linearGradient><linearGradient id="paint4_linear" x1="450" y1="63.954" x2="500" y2="63.954" gradientUnits="userSpaceOnUse"><stop stop-color="#A1C4FD"/><stop offset="1" stop-color="#C2E9FB"/></linearGradient><linearGradient id="paint5_linear" x1="337" y1="648.537" x2="387" y2="648.537" gradientUnits="userSpaceOnUse"><stop stop-color="#48C6EF"/><stop offset="1" stop-color="#6F86D6"/></linearGradient><linearGradient id="paint6_linear" x1="1057" y1="648.537" x2="1107" y2="648.537" gradientUnits="userSpaceOnUse"><stop stop-color="#00C6FB"/><stop offset="1" stop-color="#005BEA"/></linearGradient><linearGradient id="paint7_linear" x1="1057" y1="570.093" x2="1107" y2="570.093" gradientUnits="userSpaceOnUse"><stop stop-color="#00C6FB"/><stop offset="1" stop-color="#005BEA"/></linearGradient><linearGradient id="paint8_linear" x1="1507" y1="648.537" x2="1557" y2="648.537" gradientUnits="userSpaceOnUse"><stop stop-color="#00C6FB"/><stop offset="1" stop-color="#005BEA"/></linearGradient><linearGradient id="paint9_linear" x1="247" y1="570.593" x2="297" y2="570.593" gradientUnits="userSpaceOnUse"><stop stop-color="#00C6FB"/><stop offset="1" stop-color="#005BEA"/></linearGradient><linearGradient id="paint10_linear" x1="1417" y1="570.593" x2="1467" y2="570.593" gradientUnits="userSpaceOnUse"><stop stop-color="#00C6FB"/><stop offset="1" stop-color="#005BEA"/></linearGradient><linearGradient id="paint11_linear" x1="1417" y1="102.926" x2="1467" y2="102.926" gradientUnits="userSpaceOnUse"><stop stop-color="#00C6FB"/><stop offset="1" stop-color="#005BEA"/></linearGradient><linearGradient id="paint12_linear" x1="1327" y1="25.482" x2="1377" y2="25.482" gradientUnits="userSpaceOnUse"><stop stop-color="#00C6FB"/><stop offset="1" stop-color="#005BEA"/></linearGradient><linearGradient id="paint13_linear" x1="1417" y1="25.482" x2="1467" y2="25.482" gradientUnits="userSpaceOnUse"><stop stop-color="#00C6FB"/><stop offset="1" stop-color="#005BEA"/></linearGradient><linearGradient id="paint14_linear" x1="562" y1="648.537" x2="612" y2="648.537" gradientUnits="userSpaceOnUse"><stop stop-color="#16D9E3"/><stop offset=".47" stop-color="#30C7EC"/><stop offset="1" stop-color="#46AEF7"/></linearGradient><linearGradient id="paint15_linear" x1="832" y1="648.537" x2="882" y2="648.537" gradientUnits="userSpaceOnUse"><stop stop-color="#48C6EF"/><stop offset="1" stop-color="#6F86D6"/></linearGradient><linearGradient id="paint16_linear" x1="968" y1="648.537" x2="1018" y2="648.537" gradientUnits="userSpaceOnUse"><stop stop-color="#48C6EF"/><stop offset="1" stop-color="#6F86D6"/></linearGradient><linearGradient id="paint17_linear" x1="1192" y1="648.537" x2="1242" y2="648.537" gradientUnits="userSpaceOnUse"><stop stop-color="#00C6FB"/><stop offset="1" stop-color="#005BEA"/></linearGradient><linearGradient id="paint18_linear" x1="1732" y1="570.593" x2="1782" y2="570.593" gradientUnits="userSpaceOnUse"><stop stop-color="#48C6EF"/><stop offset="1" stop-color="#6F86D6"/></linearGradient><linearGradient id="paint19_linear" x1="22" y1="492.648" x2="72" y2="492.648" gradientUnits="userSpaceOnUse"><stop stop-color="#48C6EF"/><stop offset="1" stop-color="#6F86D6"/></linearGradient><linearGradient id="paint20_linear" x1="742" y1="492.648" x2="792" y2="492.648" gradientUnits="userSpaceOnUse"><stop stop-color="#00C6FB"/><stop offset="1" stop-color="#005BEA"/></linearGradient><linearGradient id="paint21_linear" x1="1732" y1="414.704" x2="1782" y2="414.704" gradientUnits="userSpaceOnUse"><stop stop-color="#00C6FB"/><stop offset="1" stop-color="#005BEA"/></linearGradient><linearGradient id="paint22_linear" x1="22" y1="180.871" x2="72" y2="180.871" gradientUnits="userSpaceOnUse"><stop stop-color="#00C6FB"/><stop offset="1" stop-color="#005BEA"/></linearGradient><linearGradient id="paint23_linear" x1="382" y1="102.926" x2="432" y2="102.926" gradientUnits="userSpaceOnUse"><stop stop-color="#4FACFE"/><stop offset="1" stop-color="#00F2FE"/></linearGradient><linearGradient id="paint24_linear" x1="1102" y1="102.926" x2="1152" y2="102.926" gradientUnits="userSpaceOnUse"><stop stop-color="#00C6FB"/><stop offset="1" stop-color="#005BEA"/></linearGradient><linearGradient id="paint25_linear" x1="337" y1="25.482" x2="387" y2="25.482" gradientUnits="userSpaceOnUse"><stop stop-color="#00C6FB"/><stop offset="1" stop-color="#005BEA"/></linearGradient><linearGradient id="paint26_linear" x1="1012" y1="25.482" x2="1062" y2="25.482" gradientUnits="userSpaceOnUse"><stop stop-color="#00C6FB"/><stop offset="1" stop-color="#005BEA"/></linearGradient><linearGradient id="paint27_linear" x1="24.65" y1="414.704" x2="3" y2="414.704" gradientUnits="userSpaceOnUse"><stop stop-color="#00C6FB"/><stop offset="1" stop-color="#005BEA"/></linearGradient><linearGradient id="paint28_linear" x1="495" y1="63.954" x2="545" y2="63.954" gradientUnits="userSpaceOnUse"><stop stop-color="#00C6FB"/><stop offset="1" stop-color="#005BEA"/></linearGradient><linearGradient id="paint29_linear" x1="675" y1="63.954" x2="725" y2="63.954" gradientUnits="userSpaceOnUse"><stop stop-color="#48C6EF"/><stop offset="1" stop-color="#6F86D6"/></linearGradient><linearGradient id="paint30_linear" x1="1665" y1="141.899" x2="1715" y2="141.899" gradientUnits="userSpaceOnUse"><stop stop-color="#00C6FB"/><stop offset="1" stop-color="#005BEA"/></linearGradient><linearGradient id="paint31_linear" x1="1755" y1="141.899" x2="1805" y2="141.899" gradientUnits="userSpaceOnUse"><stop stop-color="#00C6FB"/><stop offset="1" stop-color="#005BEA"/></linearGradient><linearGradient id="paint32_linear" x1="45" y1="609.565" x2="95" y2="609.565" gradientUnits="userSpaceOnUse"><stop stop-color="#00C6FB"/><stop offset="1" stop-color="#005BEA"/></linearGradient><linearGradient id="paint33_linear" x1="22" y1="25.482" x2="72" y2="25.482" gradientUnits="userSpaceOnUse"><stop stop-color="#00C6FB"/><stop offset="1" stop-color="#005BEA"/></linearGradient><linearGradient id="paint34_linear" x1="585" y1="610.064" x2="635" y2="610.064" gradientUnits="userSpaceOnUse"><stop stop-color="#00C6FB"/><stop offset="1" stop-color="#005BEA"/></linearGradient><linearGradient id="paint35_linear" x1="1215" y1="609.565" x2="1265" y2="609.565" gradientUnits="userSpaceOnUse"><stop stop-color="#00C6FB"/><stop offset="1" stop-color="#005BEA"/></linearGradient></defs></svg>