<svg width="1805" height="701" fill="none" xmlns="http://www.w3.org/2000/svg"><path opacity=".2" d="M1534.5 676.866l20.15-11.634 20.15 11.634V699.5h-40.3v-22.634zm45 0l20.15-11.634 20.15 11.634V699.5h-40.3v-22.634zm45 0l20.15-11.634 20.15 11.634V699.5h-40.3v-22.634zm135 0l20.15-11.634 20.15 11.634V699.5h-40.3v-22.634zm-1754.65-78L25 587.232l20.15 11.634v23.268L25 633.768 4.85 622.134v-23.268zm269.999 0L295 587.232l20.151 11.634v23.268L295 633.768l-20.151-11.634v-23.268zm90 0L385 587.232l20.151 11.634v23.268L385 633.768l-20.151-11.634v-23.268zm90 0L475 587.232l20.151 11.634v23.268L475 633.768l-20.151-11.634v-23.268z" fill="#2E2E2E" stroke="#2575FC" stroke-width="3"/><path opacity=".2" d="M544.849 598.866L565 587.232l20.151 11.634v23.268L565 633.768l-20.151-11.634v-23.268z" fill="#24BAED" stroke="#2575FC" stroke-width="3"/><path opacity=".2" d="M634.849 598.866L655 587.232l20.151 11.634v23.268L655 633.768l-20.151-11.634v-23.268zm67 39.5L722 626.732l20.151 11.634v23.268L722 673.268l-20.151-11.634v-23.268z" fill="#2E2E2E" stroke="#2575FC" stroke-width="3"/><path opacity=".2" d="M904.849 598.866L925 587.232l20.151 11.634v23.268L925 633.768l-20.151-11.634v-23.268z" fill="#04BEFE" stroke="#2575FC" stroke-width="3"/><path opacity=".2" d="M1174.85 598.866l20.15-11.634 20.15 11.634v23.268L1195 633.768l-20.15-11.634v-23.268zm180 0l20.15-11.634 20.15 11.634v23.268L1375 633.768l-20.15-11.634v-23.268zm180 0l20.15-11.634 20.15 11.634v23.268L1555 633.768l-20.15-11.634v-23.268zm90 0l20.15-11.634 20.15 11.634v23.268L1645 633.768l-20.15-11.634v-23.268zm90 0l20.15-11.634 20.15 11.634v23.268L1735 633.768l-20.15-11.634v-23.268zm-1710-78L25 509.232l20.15 11.634v23.268L25 555.768 4.85 544.134v-23.268zm90 0L115 509.232l20.151 11.634v23.268L115 555.768l-20.15-11.634v-23.268zm179.999 0L295 509.232l20.151 11.634v23.268L295 555.768l-20.151-11.634v-23.268zm90 0L385 509.232l20.151 11.634v23.268L385 555.768l-20.151-11.634v-23.268zm90 0L475 509.232l20.151 11.634v23.268L475 555.768l-20.151-11.634v-23.268z" fill="#2E2E2E" stroke="#2575FC" stroke-width="3"/><path opacity=".2" d="M544.849 520.866L565 509.232l20.151 11.634v23.268L565 555.768l-20.151-11.634v-23.268zm90 0L655 509.232l20.151 11.634v23.268L655 555.768l-20.151-11.634v-23.268z" fill="#24BAED" stroke="#2575FC" stroke-width="3"/><path opacity=".2" d="M724.849 520.866L745 509.232l20.151 11.634v23.268L745 555.768l-20.151-11.634v-23.268z" fill="#2E2E2E" stroke="#2575FC" stroke-width="3"/><path opacity=".2" d="M814.849 520.866L835 509.232l20.151 11.634v23.268L835 555.768l-20.151-11.634v-23.268z" fill="#24BAED" stroke="#2575FC" stroke-width="3"/><path opacity=".2" d="M904.849 520.866L925 509.232l20.151 11.634v23.268L925 555.768l-20.151-11.634v-23.268z" fill="#2E2E2E" stroke="#2575FC" stroke-width="3"/><path opacity=".2" d="M994.849 520.866L1015 509.232l20.15 11.634v23.268L1015 555.768l-20.151-11.634v-23.268zm180.001 0l20.15-11.634 20.15 11.634v23.268L1195 555.768l-20.15-11.634v-23.268z" fill="#24BAED" stroke="#2575FC" stroke-width="3"/><path opacity=".2" d="M1534.85 520.866l20.15-11.634 20.15 11.634v23.268L1555 555.768l-20.15-11.634v-23.268zm90 0l20.15-11.634 20.15 11.634v23.268L1645 555.768l-20.15-11.634v-23.268zm90 0l20.15-11.634 20.15 11.634v23.268L1735 555.768l-20.15-11.634v-23.268zm-1710-78L25 431.232l20.15 11.634v23.268L25 477.768 4.85 466.134v-23.268zm90 0L115 431.232l20.151 11.634v23.268L115 477.768l-20.15-11.634v-23.268zm179.999 0L295 431.232l20.151 11.634v23.268L295 477.768l-20.151-11.634v-23.268zm90 0L385 431.232l20.151 11.634v23.268L385 477.768l-20.151-11.634v-23.268zm90 0L475 431.232l20.151 11.634v23.268L475 477.768l-20.151-11.634v-23.268zm450 0L925 431.232l20.151 11.634v23.268L925 477.768l-20.151-11.634v-23.268zm360.001 0l20.15-11.634 20.15 11.634v23.268L1285 477.768l-20.15-11.634v-23.268zm90 0l20.15-11.634 20.15 11.634v23.268L1375 477.768l-20.15-11.634v-23.268zm180 0l20.15-11.634 20.15 11.634v23.268L1555 477.768l-20.15-11.634v-23.268zm90 0l20.15-11.634 20.15 11.634v23.268L1645 477.768l-20.15-11.634v-23.268zm90 0l20.15-11.634 20.15 11.634v23.268L1735 477.768l-20.15-11.634v-23.268zm-1710-78L25 353.232l20.15 11.634v23.268L25 399.768 4.85 388.134v-23.268zm269.999 0L295 353.232l20.151 11.634v23.268L295 399.768l-20.151-11.634v-23.268zm90 0L385 353.232l20.151 11.634v23.268L385 399.768l-20.151-11.634v-23.268zm180 0L565 353.232l20.151 11.634v23.268L565 399.768l-20.151-11.634v-23.268zm540.001 0l20.15-11.634 20.15 11.634v23.268L1105 399.768l-20.15-11.634v-23.268zm90 0l20.15-11.634 20.15 11.634v23.268L1195 399.768l-20.15-11.634v-23.268zm90 0l20.15-11.634 20.15 11.634v23.268L1285 399.768l-20.15-11.634v-23.268zm90 0l20.15-11.634 20.15 11.634v23.268L1375 399.768l-20.15-11.634v-23.268zm-1260-78L115 275.232l20.151 11.634v23.268L115 321.768l-20.15-11.634v-23.268zm179.999 0L295 275.232l20.151 11.634v23.268L295 321.768l-20.151-11.634v-23.268zm90 0L385 275.232l20.151 11.634v23.268L385 321.768l-20.151-11.634v-23.268zm90 0L475 275.232l20.151 11.634v23.268L475 321.768l-20.151-11.634v-23.268zm90 0L565 275.232l20.151 11.634v23.268L565 321.768l-20.151-11.634v-23.268zm90 0L655 275.232l20.151 11.634v23.268L655 321.768l-20.151-11.634v-23.268zm450.001 0l20.15-11.634 20.15 11.634v23.268L1105 321.768l-20.15-11.634v-23.268zm90 0l20.15-11.634 20.15 11.634v23.268L1195 321.768l-20.15-11.634v-23.268zm90 0l20.15-11.634 20.15 11.634v23.268L1285 321.768l-20.15-11.634v-23.268zm90 0l20.15-11.634 20.15 11.634v23.268L1375 321.768l-20.15-11.634v-23.268zm180 0l20.15-11.634 20.15 11.634v23.268L1555 321.768l-20.15-11.634v-23.268zm180 0l20.15-11.634 20.15 11.634v23.268L1735 321.768l-20.15-11.634v-23.268zm-1710-78L25 197.232l20.15 11.634v23.268L25 243.768 4.85 232.134v-23.268zm90 0L115 197.232l20.151 11.634v23.268L115 243.768l-20.15-11.634v-23.268zm89.999 0L205 197.232l20.151 11.634v23.268L205 243.768l-20.151-11.634v-23.268zm90 0L295 197.232l20.151 11.634v23.268L295 243.768l-20.151-11.634v-23.268zm90 0L385 197.232l20.151 11.634v23.268L385 243.768l-20.151-11.634v-23.268zm180 0L565 197.232l20.151 11.634v23.268L565 243.768l-20.151-11.634v-23.268zm90 0L655 197.232l20.151 11.634v23.268L655 243.768l-20.151-11.634v-23.268zm90 0L745 197.232l20.151 11.634v23.268L745 243.768l-20.151-11.634v-23.268zm90 0L835 197.232l20.151 11.634v23.268L835 243.768l-20.151-11.634v-23.268zm90 0L925 197.232l20.151 11.634v23.268L925 243.768l-20.151-11.634v-23.268zm180.001 0l20.15-11.634 20.15 11.634v23.268L1105 243.768l-20.15-11.634v-23.268zm270 0l20.15-11.634 20.15 11.634v23.268L1375 243.768l-20.15-11.634v-23.268zm180 0l20.15-11.634 20.15 11.634v23.268L1555 243.768l-20.15-11.634v-23.268zm180 0l20.15-11.634 20.15 11.634v23.268L1735 243.768l-20.15-11.634v-23.268zm-1710-78L25 119.232l20.15 11.634v23.268L25 165.768 4.85 154.134v-23.268zm90 0L115 119.232l20.151 11.634v23.268L115 165.768l-20.15-11.634v-23.268zm89.999 0L205 119.232l20.151 11.634v23.268L205 165.768l-20.151-11.634v-23.268zm90 0L295 119.232l20.151 11.634v23.268L295 165.768l-20.151-11.634v-23.268zm90 0L385 119.232l20.151 11.634v23.268L385 165.768l-20.151-11.634v-23.268zm90 0L475 119.232l20.151 11.634v23.268L475 165.768l-20.151-11.634v-23.268zm90 0L565 119.232l20.151 11.634v23.268L565 165.768l-20.151-11.634v-23.268zm90 0L655 119.232l20.151 11.634v23.268L655 165.768l-20.151-11.634v-23.268zm90 0L745 119.232l20.151 11.634v23.268L745 165.768l-20.151-11.634v-23.268zm180 0L925 119.232l20.151 11.634v23.268L925 165.768l-20.151-11.634v-23.268zm180.001 0l20.15-11.634 20.15 11.634v23.268L1105 165.768l-20.15-11.634v-23.268zm90 0l20.15-11.634 20.15 11.634v23.268L1195 165.768l-20.15-11.634v-23.268zm90 0l20.15-11.634 20.15 11.634v23.268L1285 165.768l-20.15-11.634v-23.268zm90 0l20.15-11.634 20.15 11.634v23.268L1375 165.768l-20.15-11.634v-23.268zm90 0l20.15-11.634 20.15 11.634v23.268L1465 165.768l-20.15-11.634v-23.268zm-1170.001-78L295 41.232l20.151 11.634v23.268L295 87.768l-20.151-11.634V52.866zm90 0L385 41.232l20.151 11.634v23.268L385 87.768l-20.151-11.634V52.866zm90 0L475 41.232l20.151 11.634v23.268L475 87.768l-20.151-11.634V52.866zm90 0L565 41.232l20.151 11.634v23.268L565 87.768l-20.151-11.634V52.866zm180 0L745 41.232l20.151 11.634v23.268L745 87.768l-20.151-11.634V52.866zm90 0L835 41.232l20.151 11.634v23.268L835 87.768l-20.151-11.634V52.866zm90 0L925 41.232l20.151 11.634v23.268L925 87.768l-20.151-11.634V52.866zm90 0L1015 41.232l20.15 11.634v23.268L1015 87.768l-20.151-11.634V52.866z" fill="#2E2E2E" stroke="#2575FC" stroke-width="3"/><path opacity=".2" d="M1084.85 52.866L1105 41.232l20.15 11.634v23.268L1105 87.768l-20.15-11.634V52.866z" fill="#24BAED" stroke="#2575FC" stroke-width="3"/><path opacity=".2" d="M1174.85 52.866L1195 41.232l20.15 11.634v23.268L1195 87.768l-20.15-11.634V52.866zm90 0L1285 41.232l20.15 11.634v23.268L1285 87.768l-20.15-11.634V52.866zm-1238 585L47 626.232l20.15 11.634v23.268L47 672.768l-20.15-11.634v-23.268zm314.999 0L362 626.232l20.151 11.634v23.268L362 672.768l-20.151-11.634v-23.268zm180 0L542 626.232l20.151 11.634v23.268L542 672.768l-20.151-11.634v-23.268zm360 0L902 626.232l20.151 11.634v23.268L902 672.768l-20.151-11.634v-23.268zm180.001 0l20.15-11.634 20.15 11.634v23.268L1082 672.768l-20.15-11.634v-23.268zm0-78.5l20.15-11.634 20.15 11.634v23.268L1082 594.268l-20.15-11.634v-23.268zm90 78.5l20.15-11.634 20.15 11.634v23.268L1172 672.768l-20.15-11.634v-23.268zm90 0l20.15-11.634 20.15 11.634v23.268L1262 672.768l-20.15-11.634v-23.268zm90 0l20.15-11.634 20.15 11.634v23.268L1352 672.768l-20.15-11.634v-23.268zm180 0l20.15-11.634 20.15 11.634v23.268L1532 672.768l-20.15-11.634v-23.268zm90 0l20.15-11.634 20.15 11.634v23.268L1622 672.768l-20.15-11.634v-23.268zm90-234l20.15-11.634 20.15 11.634v23.268L1712 438.768l-20.15-11.634v-23.268zm0-156l20.15-11.634 20.15 11.634v23.268L1712 282.768l-20.15-11.634v-23.268zm0-78l20.15-11.634 20.15 11.634v23.268L1712 204.768l-20.15-11.634v-23.268zm0-78L1712 80.232l20.15 11.634v23.268L1712 126.768l-20.15-11.634V91.866zm0-78L1712 2.232l20.15 11.634v23.268L1712 48.768l-20.15-11.634V13.866zm-90 0L1622 2.232l20.15 11.634v23.268L1622 48.768l-20.15-11.634V13.866zm-90 0L1532 2.232l20.15 11.634v23.268L1532 48.768l-20.15-11.634V13.866zm-945.001.5L587 2.732l20.151 11.634v23.268L587 49.268l-20.151-11.634V14.366zm675.001 0L1262 2.732l20.15 11.634v23.268L1262 49.268l-20.15-11.634V14.366zm-855.001 0L407 2.732l20.151 11.634v23.268L407 49.268l-20.151-11.634V14.366zm675.001 0L1082 2.732l20.15 11.634v23.268L1082 49.268l-20.15-11.634V14.366zm-765.001 0L317 2.732l20.151 11.634v23.268L317 49.268l-20.151-11.634V14.366zm675 0L992 2.732l20.15 11.634v23.268L992 49.268l-20.151-11.634V14.366zm-765 0L227 2.732l20.151 11.634v23.268L227 49.268l-20.151-11.634V14.366zm675 0L902 2.732l20.151 11.634v23.268L902 49.268l-20.151-11.634V14.366zm-765 0L137 2.732l20.151 11.634v23.268L137 49.268l-20.151-11.634V14.366zm675 0L812 2.732l20.151 11.634v23.268L812 49.268l-20.151-11.634V14.366zM71.85 91.866L92 80.232l20.151 11.634v23.268L92 126.768l-20.15-11.634V91.866zm0 156L92 236.232l20.151 11.634v23.268L92 282.768l-20.15-11.634v-23.268zm89.999 312L182 548.232l20.151 11.634v23.268L182 594.768l-20.151-11.634v-23.268zm90 0L272 548.232l20.151 11.634v23.268L272 594.768l-20.151-11.634v-23.268zm90 0L362 548.232l20.151 11.634v23.268L362 594.768l-20.151-11.634v-23.268zm90 0L452 548.232l20.151 11.634v23.268L452 594.768l-20.151-11.634v-23.268zm450 0L902 548.232l20.151 11.634v23.268L902 594.768l-20.151-11.634v-23.268zm270.001 0l20.15-11.634 20.15 11.634v23.268L1172 594.768l-20.15-11.634v-23.268zm180 0l20.15-11.634 20.15 11.634v23.268L1352 594.768l-20.15-11.634v-23.268z" fill="#2E2E2E" stroke="#2575FC" stroke-width="3"/><path opacity=".2" d="M1421.85 559.866l20.15-11.634 20.15 11.634v23.268L1442 594.768l-20.15-11.634v-23.268z" fill="#24BAED" stroke="#2575FC" stroke-width="3"/><path opacity=".2" d="M1601.85 559.866l20.15-11.634 20.15 11.634v23.268L1622 594.768l-20.15-11.634v-23.268zm0-234l20.15-11.634 20.15 11.634v23.268L1622 360.768l-20.15-11.634v-23.268zm0-78l20.15-11.634 20.15 11.634v23.268L1622 282.768l-20.15-11.634v-23.268zm0-78l20.15-11.634 20.15 11.634v23.268L1622 204.768l-20.15-11.634v-23.268zm-180-78L1442 80.232l20.15 11.634v23.268L1442 126.768l-20.15-11.634V91.866zm-90-77.5L1352 2.732l20.15 11.634v23.268L1352 49.268l-20.15-11.634V14.366zm90 0L1442 2.732l20.15 11.634v23.268L1442 49.268l-20.15-11.634V14.366zm-90 77.5L1352 80.232l20.15 11.634v23.268L1352 126.768l-20.15-11.634V91.866zm-180 0L1172 80.232l20.15 11.634v23.268L1172 126.768l-20.15-11.634V91.866zm-90 0L1082 80.232l20.15 11.634v23.268L1082 126.768l-20.15-11.634V91.866zm-180.001 0L902 80.232l20.151 11.634v23.268L902 126.768l-20.151-11.634V91.866z" fill="#2E2E2E" stroke="#2575FC" stroke-width="3"/><path opacity=".2" d="M791.849 91.866L812 80.232l20.151 11.634v23.268L812 126.768l-20.151-11.634V91.866z" fill="#24BAED" stroke="#2575FC" stroke-width="3"/><path opacity=".2" d="M611.849 91.866L632 80.232l20.151 11.634v23.268L632 126.768l-20.151-11.634V91.866z" fill="#2E2E2E" stroke="#2575FC" stroke-width="3"/><path opacity=".2" d="M521.849 91.866L542 80.232l20.151 11.634v23.268L542 126.768l-20.151-11.634V91.866z" fill="#24BAED" stroke="#2575FC" stroke-width="3"/><path opacity=".2" d="M431.849 91.866L452 80.232l20.151 11.634v23.268L452 126.768l-20.151-11.634V91.866zm-90 0L362 80.232l20.151 11.634v23.268L362 126.768l-20.151-11.634V91.866zm-180 156L182 236.232l20.151 11.634v23.268L182 282.768l-20.151-11.634v-23.268zm0 78L182 314.232l20.151 11.634v23.268L182 360.768l-20.151-11.634v-23.268zm0 78L182 392.232l20.151 11.634v23.268L182 438.768l-20.151-11.634v-23.268zm0 78L182 470.232l20.151 11.634v23.268L182 516.768l-20.151-11.634v-23.268zm270 0L452 470.232l20.151 11.634v23.268L452 516.768l-20.151-11.634v-23.268zm90 0L542 470.232l20.151 11.634v23.268L542 516.768l-20.151-11.634v-23.268zm180 0L722 470.232l20.151 11.634v23.268L722 516.768l-20.151-11.634v-23.268zm180 0L902 470.232l20.151 11.634v23.268L902 516.768l-20.151-11.634v-23.268zm90 0L992 470.232l20.15 11.634v23.268L992 516.768l-20.151-11.634v-23.268zm180.001 0l20.15-11.634 20.15 11.634v23.268L1172 516.768l-20.15-11.634v-23.268zm90 0l20.15-11.634 20.15 11.634v23.268L1262 516.768l-20.15-11.634v-23.268zm90 0l20.15-11.634 20.15 11.634v23.268L1352 516.768l-20.15-11.634v-23.268zm180 0l20.15-11.634 20.15 11.634v23.268L1532 516.768l-20.15-11.634v-23.268zm0-78l20.15-11.634 20.15 11.634v23.268L1532 438.768l-20.15-11.634v-23.268zm0-156l20.15-11.634 20.15 11.634v23.268L1532 282.768l-20.15-11.634v-23.268zm-180-78l20.15-11.634 20.15 11.634v23.268L1352 204.768l-20.15-11.634v-23.268zm-90 0l20.15-11.634 20.15 11.634v23.268L1262 204.768l-20.15-11.634v-23.268zm-90 0l20.15-11.634 20.15 11.634v23.268L1172 204.768l-20.15-11.634v-23.268zm-270.001 0L902 158.232l20.151 11.634v23.268L902 204.768l-20.151-11.634v-23.268zm-90 0L812 158.232l20.151 11.634v23.268L812 204.768l-20.151-11.634v-23.268zm-90 0L722 158.232l20.151 11.634v23.268L722 204.768l-20.151-11.634v-23.268zm-270 0L452 158.232l20.151 11.634v23.268L452 204.768l-20.151-11.634v-23.268zm-180 0L272 158.232l20.151 11.634v23.268L272 204.768l-20.151-11.634v-23.268zm0 156L272 314.232l20.151 11.634v23.268L272 360.768l-20.151-11.634v-23.268zm0 78L272 392.232l20.151 11.634v23.268L272 438.768l-20.151-11.634v-23.268zm90 0L362 392.232l20.151 11.634v23.268L362 438.768l-20.151-11.634v-23.268zm90 0L452 392.232l20.151 11.634v23.268L452 438.768l-20.151-11.634v-23.268zm180 0L632 392.232l20.151 11.634v23.268L632 438.768l-20.151-11.634v-23.268zm180 0L812 392.232l20.151 11.634v23.268L812 438.768l-20.151-11.634v-23.268zm90 0L902 392.232l20.151 11.634v23.268L902 438.768l-20.151-11.634v-23.268zm90 0L992 392.232l20.15 11.634v23.268L992 438.768l-20.151-11.634v-23.268zm180.001 0l20.15-11.634 20.15 11.634v23.268L1172 438.768l-20.15-11.634v-23.268zm90 0l20.15-11.634 20.15 11.634v23.268L1262 438.768l-20.15-11.634v-23.268zm90 0l20.15-11.634 20.15 11.634v23.268L1352 438.768l-20.15-11.634v-23.268zm0-156l20.15-11.634 20.15 11.634v23.268L1352 282.768l-20.15-11.634v-23.268zm-810.001 0L542 236.232l20.151 11.634v23.268L542 282.768l-20.151-11.634v-23.268zm-90 0L452 236.232l20.151 11.634v23.268L452 282.768l-20.151-11.634v-23.268zm-90 0L362 236.232l20.151 11.634v23.268L362 282.768l-20.151-11.634v-23.268zm0 78L362 314.232l20.151 11.634v23.268L362 360.768l-20.151-11.634v-23.268zm270 0L632 314.232l20.151 11.634v23.268L632 360.768l-20.151-11.634v-23.268zm630.001 0l20.15-11.634 20.15 11.634v23.268L1262 360.768l-20.15-11.634v-23.268zm90 0l20.15-11.634 20.15 11.634v23.268L1352 360.768l-20.15-11.634v-23.268zm-1125.001 312L227 626.232l20.151 11.634v23.268L227 672.768l-20.151-11.634v-23.268zm90 0L317 626.232l20.151 11.634v23.268L317 672.768l-20.151-11.634v-23.268zm90 0L407 626.232l20.151 11.634v23.268L407 672.768l-20.151-11.634v-23.268zm180 0L587 626.232l20.151 11.634v23.268L587 672.768l-20.151-11.634v-23.268zm90 0L677 626.232l20.151 11.634v23.268L677 672.768l-20.151-11.634v-23.268zm90 0L767 626.232l20.151 11.634v23.268L767 672.768l-20.151-11.634v-23.268zm90 0L857 626.232l20.151 11.634v23.268L857 672.768l-20.151-11.634v-23.268zm136 0L993 626.232l20.15 11.634v23.268L993 672.768l-20.151-11.634v-23.268zm44.001 0l20.15-11.634 20.15 11.634v23.268L1037 672.768l-20.15-11.634v-23.268zm180 0l20.15-11.634 20.15 11.634v23.268L1217 672.768l-20.15-11.634v-23.268zm180 0l20.15-11.634 20.15 11.634v23.268L1397 672.768l-20.15-11.634v-23.268zm270 0l20.15-11.634 20.15 11.634v23.268L1667 672.768l-20.15-11.634v-23.268zm-1620-78L47 548.232l20.15 11.634v23.268L47 594.768l-20.15-11.634v-23.268zm1350 0l20.15-11.634 20.15 11.634v23.268L1397 594.768l-20.15-11.634v-23.268zm90 0l20.15-11.634 20.15 11.634v23.268L1487 594.768l-20.15-11.634v-23.268zm180 0l20.15-11.634 20.15 11.634v23.268L1667 594.768l-20.15-11.634v-23.268zm90 0l20.15-11.634 20.15 11.634v23.268L1757 594.768l-20.15-11.634v-23.268zm-1710-78L47 470.232l20.15 11.634v23.268L47 516.768l-20.15-11.634v-23.268zm89.999 0L137 470.232l20.151 11.634v23.268L137 516.768l-20.151-11.634v-23.268zm180 0L317 470.232l20.151 11.634v23.268L317 516.768l-20.151-11.634v-23.268zm90 0L407 470.232l20.151 11.634v23.268L407 516.768l-20.151-11.634v-23.268zm180 0L587 470.232l20.151 11.634v23.268L587 516.768l-20.151-11.634v-23.268zm90 0L677 470.232l20.151 11.634v23.268L677 516.768l-20.151-11.634v-23.268zm90 0L767 470.232l20.151 11.634v23.268L767 516.768l-20.151-11.634v-23.268zm90 0L857 470.232l20.151 11.634v23.268L857 516.768l-20.151-11.634v-23.268zm90 0L947 470.232l20.151 11.634v23.268L947 516.768l-20.151-11.634v-23.268zm90.001 0l20.15-11.634 20.15 11.634v23.268L1037 516.768l-20.15-11.634v-23.268zm90 0l20.15-11.634 20.15 11.634v23.268L1127 516.768l-20.15-11.634v-23.268zm90 0l20.15-11.634 20.15 11.634v23.268L1217 516.768l-20.15-11.634v-23.268zm90 0l20.15-11.634 20.15 11.634v23.268L1307 516.768l-20.15-11.634v-23.268zm90 0l20.15-11.634 20.15 11.634v23.268L1397 516.768l-20.15-11.634v-23.268zm180 0l20.15-11.634 20.15 11.634v23.268L1577 516.768l-20.15-11.634v-23.268zm90 0l20.15-11.634 20.15 11.634v23.268L1667 516.768l-20.15-11.634v-23.268zm90 0l20.15-11.634 20.15 11.634v23.268L1757 516.768l-20.15-11.634v-23.268zm-1530.001-78L227 392.232l20.151 11.634v23.268L227 438.768l-20.151-11.634v-23.268zm90 0L317 392.232l20.151 11.634v23.268L317 438.768l-20.151-11.634v-23.268zm90 0L407 392.232l20.151 11.634v23.268L407 438.768l-20.151-11.634v-23.268zm630.001 0l20.15-11.634 20.15 11.634v23.268L1037 438.768l-20.15-11.634v-23.268zm90 0l20.15-11.634 20.15 11.634v23.268L1127 438.768l-20.15-11.634v-23.268zm180 0l20.15-11.634 20.15 11.634v23.268L1307 438.768l-20.15-11.634v-23.268zm90 0l20.15-11.634 20.15 11.634v23.268L1397 438.768l-20.15-11.634v-23.268zm360 0l20.15-11.634 20.15 11.634v23.268L1757 438.768l-20.15-11.634v-23.268zm-1710-78L47 314.232l20.15 11.634v23.268L47 360.768l-20.15-11.634v-23.268zm269.999 0L317 314.232l20.151 11.634v23.268L317 360.768l-20.151-11.634v-23.268zm360 0L677 314.232l20.151 11.634v23.268L677 360.768l-20.151-11.634v-23.268zm720.001 0l20.15-11.634 20.15 11.634v23.268L1397 360.768l-20.15-11.634v-23.268zm180 0l20.15-11.634 20.15 11.634v23.268L1577 360.768l-20.15-11.634v-23.268zm90 0l20.15-11.634 20.15 11.634v23.268L1667 360.768l-20.15-11.634v-23.268zm-1620-78L47 236.232l20.15 11.634v23.268L47 282.768l-20.15-11.634v-23.268zm89.999 0L137 236.232l20.151 11.634v23.268L137 282.768l-20.151-11.634v-23.268zm180 0L317 236.232l20.151 11.634v23.268L317 282.768l-20.151-11.634v-23.268zm180 0L497 236.232l20.151 11.634v23.268L497 282.768l-20.151-11.634v-23.268zm630.001 0l20.15-11.634 20.15 11.634v23.268L1127 282.768l-20.15-11.634v-23.268zm90 0l20.15-11.634 20.15 11.634v23.268L1217 282.768l-20.15-11.634v-23.268zm90 0l20.15-11.634 20.15 11.634v23.268L1307 282.768l-20.15-11.634v-23.268zm90 0l20.15-11.634 20.15 11.634v23.268L1397 282.768l-20.15-11.634v-23.268zm270 0l20.15-11.634 20.15 11.634v23.268L1667 282.768l-20.15-11.634v-23.268zm90 0l20.15-11.634 20.15 11.634v23.268L1757 282.768l-20.15-11.634v-23.268zm-1710-78L47 158.232l20.15 11.634v23.268L47 204.768l-20.15-11.634v-23.268zm89.999 0L137 158.232l20.151 11.634v23.268L137 204.768l-20.151-11.634v-23.268zm90 0L227 158.232l20.151 11.634v23.268L227 204.768l-20.151-11.634v-23.268zm90 0L317 158.232l20.151 11.634v23.268L317 204.768l-20.151-11.634v-23.268zm90 0L407 158.232l20.151 11.634v23.268L407 204.768l-20.151-11.634v-23.268zm180 0L587 158.232l20.151 11.634v23.268L587 204.768l-20.151-11.634v-23.268zm180 0L767 158.232l20.151 11.634v23.268L767 204.768l-20.151-11.634v-23.268zm450.001 0l20.15-11.634 20.15 11.634v23.268L1217 204.768l-20.15-11.634v-23.268zm90 0l20.15-11.634 20.15 11.634v23.268L1307 204.768l-20.15-11.634v-23.268zm-1260-78L47 80.232l20.15 11.634v23.268L47 126.768l-20.15-11.634V91.866zm359.999 0L407 80.232l20.151 11.634v23.268L407 126.768l-20.151-11.634V91.866zm90 0L497 80.232l20.151 11.634v23.268L497 126.768l-20.151-11.634V91.866zm180 0L677 80.232l20.151 11.634v23.268L677 126.768l-20.151-11.634V91.866zm180 0L857 80.232l20.151 11.634v23.268L857 126.768l-20.151-11.634V91.866zm270.001 0L1127 80.232l20.15 11.634v23.268L1127 126.768l-20.15-11.634V91.866zm90 0L1217 80.232l20.15 11.634v23.268L1217 126.768l-20.15-11.634V91.866zm90 0L1307 80.232l20.15 11.634v23.268L1307 126.768l-20.15-11.634V91.866zm90 0L1397 80.232l20.15 11.634v23.268L1397 126.768l-20.15-11.634V91.866zm90 0L1487 80.232l20.15 11.634v23.268L1487 126.768l-20.15-11.634V91.866zm90 0L1577 80.232l20.15 11.634v23.268L1577 126.768l-20.15-11.634V91.866zm90 0L1667 80.232l20.15 11.634v23.268L1667 126.768l-20.15-11.634V91.866zm-1575-77.5L92 2.732l20.151 11.634v23.268L92 49.268 71.85 37.634V14.366zm674.999 0L767 2.732l20.151 11.634v23.268L767 49.268l-20.151-11.634V14.366zm-585 0L182 2.732l20.151 11.634v23.268L182 49.268l-20.151-11.634V14.366zm675 0L857 2.732l20.151 11.634v23.268L857 49.268l-20.151-11.634V14.366zm-585 0L272 2.732l20.151 11.634v23.268L272 49.268l-20.151-11.634V14.366zm675 0L947 2.732l20.151 11.634v23.268L947 49.268l-20.151-11.634V14.366zm-585 0L362 2.732l20.151 11.634v23.268L362 49.268l-20.151-11.634V14.366zm675.001 0L1037 2.732l20.15 11.634v23.268L1037 49.268l-20.15-11.634V14.366zm-585.001 0L452 2.732l20.151 11.634v23.268L452 49.268l-20.151-11.634V14.366zm675.001 0L1127 2.732l20.15 11.634v23.268L1127 49.268l-20.15-11.634V14.366zm-585.001 0L542 2.732l20.151 11.634v23.268L542 49.268l-20.151-11.634V14.366zm675.001 0L1217 2.732l20.15 11.634v23.268L1217 49.268l-20.15-11.634V14.366zm-585.001 0L632 2.732l20.151 11.634v23.268L632 49.268l-20.151-11.634V14.366zm675.001 0L1307 2.732l20.15 11.634v23.268L1307 49.268l-20.15-11.634V14.366zm-1263.7 623.5L4.5 627.098v44.804l18.65-10.768v-23.268zm0-234L4.5 393.098v44.804l18.65-10.768v-23.268zm0-78L4.5 315.098v44.804l18.65-10.768v-23.268zm0-156L4.5 159.098v44.804l18.65-10.768v-23.268z" fill="#2E2E2E" stroke="#2575FC" stroke-width="3"/><path opacity=".2" d="M139.849 52.866L160 41.232l20.151 11.634v23.268L160 87.768l-20.151-11.634V52.866z" fill="#24BAED" stroke="#2575FC" stroke-width="3"/><path opacity=".2" d="M499.849 52.866L520 41.232l20.151 11.634v23.268L520 87.768l-20.151-11.634V52.866zm90 0L610 41.232l20.151 11.634v23.268L610 87.768l-20.151-11.634V52.866zm90 0L700 41.232l20.151 11.634v23.268L700 87.768l-20.151-11.634V52.866zm90 0L790 41.232l20.151 11.634v23.268L790 87.768l-20.151-11.634V52.866z" fill="#2E2E2E" stroke="#2575FC" stroke-width="3"/><path opacity=".2" d="M1309.85 52.866L1330 41.232l20.15 11.634v23.268L1330 87.768l-20.15-11.634V52.866z" fill="#24BAED" stroke="#2575FC" stroke-width="3"/><path opacity=".2" d="M139.849 130.866L160 119.232l20.151 11.634v23.268L160 165.768l-20.151-11.634v-23.268zm450 0L610 119.232l20.151 11.634v23.268L610 165.768l-20.151-11.634v-23.268zm90 0L700 119.232l20.151 11.634v23.268L700 165.768l-20.151-11.634v-23.268zm90 0L790 119.232l20.151 11.634v23.268L790 165.768l-20.151-11.634v-23.268zm90 0L880 119.232l20.151 11.634v23.268L880 165.768l-20.151-11.634v-23.268zm360.001 0l20.15-11.634 20.15 11.634v23.268L1240 165.768l-20.15-11.634v-23.268zm180 0l20.15-11.634 20.15 11.634v23.268L1420 165.768l-20.15-11.634v-23.268zm270 0l20.15-11.634 20.15 11.634v23.268L1690 165.768l-20.15-11.634v-23.268zm90 0l20.15-11.634 20.15 11.634v23.268L1780 165.768l-20.15-11.634v-23.268zm-1620.001 78L160 197.232l20.151 11.634v23.268L160 243.768l-20.151-11.634v-23.268zm720 0L880 197.232l20.151 11.634v23.268L880 243.768l-20.151-11.634v-23.268zm270.001 0l20.15-11.634 20.15 11.634v23.268L1150 243.768l-20.15-11.634v-23.268zm180 0l20.15-11.634 20.15 11.634v23.268L1330 243.768l-20.15-11.634v-23.268zm-1260 78L70 275.232l20.15 11.634v23.268L70 321.768l-20.15-11.634v-23.268zm359.999 0L430 275.232l20.151 11.634v23.268L430 321.768l-20.151-11.634v-23.268zm180 0L610 275.232l20.151 11.634v23.268L610 321.768l-20.151-11.634v-23.268zm450.001 0l20.15-11.634 20.15 11.634v23.268L1060 321.768l-20.15-11.634v-23.268zm90 0l20.15-11.634 20.15 11.634v23.268L1150 321.768l-20.15-11.634v-23.268zm180 0l20.15-11.634 20.15 11.634v23.268L1330 321.768l-20.15-11.634v-23.268zm450 0l20.15-11.634 20.15 11.634v23.268L1780 321.768l-20.15-11.634v-23.268zm-1260.001 78L520 353.232l20.151 11.634v23.268L520 399.768l-20.151-11.634v-23.268zm90 0L610 353.232l20.151 11.634v23.268L610 399.768l-20.151-11.634v-23.268zm450.001 0l20.15-11.634 20.15 11.634v23.268L1060 399.768l-20.15-11.634v-23.268zm360 0l20.15-11.634 20.15 11.634v23.268L1420 399.768l-20.15-11.634v-23.268zm90 0l20.15-11.634 20.15 11.634v23.268L1510 399.768l-20.15-11.634v-23.268zm-1440 78L70 431.232l20.15 11.634v23.268L70 477.768l-20.15-11.634v-23.268zm89.999 0L160 431.232l20.151 11.634v23.268L160 477.768l-20.151-11.634v-23.268zm90 0L250 431.232l20.151 11.634v23.268L250 477.768l-20.151-11.634v-23.268zm180 0L430 431.232l20.151 11.634v23.268L430 477.768l-20.151-11.634v-23.268zm90 0L520 431.232l20.151 11.634v23.268L520 477.768l-20.151-11.634v-23.268zm90 0L610 431.232l20.151 11.634v23.268L610 477.768l-20.151-11.634v-23.268zm180 0L790 431.232l20.151 11.634v23.268L790 477.768l-20.151-11.634v-23.268zm90 0L880 431.232l20.151 11.634v23.268L880 477.768l-20.151-11.634v-23.268zm90 0L970 431.232l20.151 11.634v23.268L970 477.768l-20.151-11.634v-23.268zm90.001 0l20.15-11.634 20.15 11.634v23.268L1060 477.768l-20.15-11.634v-23.268zm-810.001 78L250 509.232l20.151 11.634v23.268L250 555.768l-20.151-11.634v-23.268zm90 0L340 509.232l20.151 11.634v23.268L340 555.768l-20.151-11.634v-23.268zm270 0L610 509.232l20.151 11.634v23.268L610 555.768l-20.151-11.634v-23.268zm270 0L880 509.232l20.151 11.634v23.268L880 555.768l-20.151-11.634v-23.268zm180.001 0l20.15-11.634 20.15 11.634v23.268L1060 555.768l-20.15-11.634v-23.268zm90 0l20.15-11.634 20.15 11.634v23.268L1150 555.768l-20.15-11.634v-23.268zm90 0l20.15-11.634 20.15 11.634v23.268L1240 555.768l-20.15-11.634v-23.268zm-1170 78L70 587.232l20.15 11.634v23.268L70 633.768l-20.15-11.634v-23.268zm-23-584.5L47 2.732l20.15 11.634v23.268L47 49.268 26.85 37.634V14.366zm674.999 0L722 2.732l20.151 11.634v23.268L722 49.268l-20.151-11.634V14.366zm-562 584.5L160 587.232l20.151 11.634v23.268L160 633.768l-20.151-11.634v-23.268z" fill="#2E2E2E" stroke="#2575FC" stroke-width="3"/><path opacity=".2" d="M319.849 598.866L340 587.232l20.151 11.634v23.268L340 633.768l-20.151-11.634v-23.268z" fill="#24BAED" stroke="#2575FC" stroke-width="3"/><path opacity=".2" d="M409.849 598.866L430 587.232l20.151 11.634v23.268L430 633.768l-20.151-11.634v-23.268zm180 .5L610 587.732l20.151 11.634v23.268L610 634.268l-20.151-11.634v-23.268zm202 39L812 626.732l20.151 11.634v23.268L812 673.268l-20.151-11.634v-23.268zm428.001-39.5l20.15-11.634 20.15 11.634v23.268L1240 633.768l-20.15-11.634v-23.268zm180 0l20.15-11.634 20.15 11.634v23.268L1420 633.768l-20.15-11.634v-23.268z" fill="#2E2E2E" stroke="#2575FC" stroke-width="3"/></svg>