<svg width="1805" height="700" fill="none" xmlns="http://www.w3.org/2000/svg"><path opacity=".2" d="M1534.5 675.884l20.15-11.625 20.15 11.625V698.5h-40.3v-22.616zm45 0l20.15-11.625 20.15 11.625V698.5h-40.3v-22.616zm180 0l20.15-11.625 20.15 11.625V698.5h-40.3v-22.616zM4.85 597.94L25 586.314l20.15 11.626v23.249L25 632.815 4.85 621.189V597.94zm449.999 0L475 586.314l20.151 11.626v23.249L475 632.815l-20.151-11.626V597.94zm90 0L565 586.314l20.151 11.626v23.249L565 632.815l-20.151-11.626V597.94zm90 0L655 586.314l20.151 11.626v23.249L655 632.815l-20.151-11.626V597.94zm67 39.472L722 625.786l20.151 11.626v23.249L722 672.287l-20.151-11.626v-23.249zm203-39.472L925 586.314l20.151 11.626v23.249L925 632.815l-20.151-11.626V597.94zm270.001 0l20.15-11.626 20.15 11.626v23.249L1195 632.815l-20.15-11.626V597.94zm180 0l20.15-11.626 20.15 11.626v23.249L1375 632.815l-20.15-11.626V597.94zm180 0l20.15-11.626 20.15 11.626v23.249L1555 632.815l-20.15-11.626V597.94zm90 0l20.15-11.626 20.15 11.626v23.249L1645 632.815l-20.15-11.626V597.94zm90 0l20.15-11.626 20.15 11.626v23.249L1735 632.815l-20.15-11.626V597.94zm-1710-77.944L25 508.37l20.15 11.626v23.249L25 554.871 4.85 543.245v-23.249zm90 0L115 508.37l20.151 11.626v23.249L115 554.871l-20.15-11.626v-23.249zm269.999 0L385 508.37l20.151 11.626v23.249L385 554.871l-20.151-11.626v-23.249zm90 0L475 508.37l20.151 11.626v23.249L475 554.871l-20.151-11.626v-23.249zm180 0L655 508.37l20.151 11.626v23.249L655 554.871l-20.151-11.626v-23.249zm90 0L745 508.37l20.151 11.626v23.249L745 554.871l-20.151-11.626v-23.249zm90 0L835 508.37l20.151 11.626v23.249L835 554.871l-20.151-11.626v-23.249zm180 0L1015 508.37l20.15 11.626v23.249L1015 554.871l-20.151-11.626v-23.249zm180.001 0L1195 508.37l20.15 11.626v23.249L1195 554.871l-20.15-11.626v-23.249zm360 0L1555 508.37l20.15 11.626v23.249L1555 554.871l-20.15-11.626v-23.249zm90 0L1645 508.37l20.15 11.626v23.249L1645 554.871l-20.15-11.626v-23.249zm90 0L1735 508.37l20.15 11.626v23.249L1735 554.871l-20.15-11.626v-23.249zm-1710-77.945L25 430.426l20.15 11.625v23.25L25 476.926 4.85 465.301v-23.25zm90 0L115 430.426l20.151 11.625v23.25L115 476.926l-20.15-11.625v-23.25zm269.999 0L385 430.426l20.151 11.625v23.25L385 476.926l-20.151-11.625v-23.25zm90 0L475 430.426l20.151 11.625v23.25L475 476.926l-20.151-11.625v-23.25zm810.001 0l20.15-11.625 20.15 11.625v23.25L1285 476.926l-20.15-11.625v-23.25zm270 0l20.15-11.625 20.15 11.625v23.25L1555 476.926l-20.15-11.625v-23.25zm90 0l20.15-11.625 20.15 11.625v23.25L1645 476.926l-20.15-11.625v-23.25zm90 0l20.15-11.625 20.15 11.625v23.25L1735 476.926l-20.15-11.625v-23.25zM274.849 364.107L295 352.481l20.151 11.626v23.249L295 398.982l-20.151-11.626v-23.249zm270 0L565 352.481l20.151 11.626v23.249L565 398.982l-20.151-11.626v-23.249zm540.001 0l20.15-11.626 20.15 11.626v23.249L1105 398.982l-20.15-11.626v-23.249zm90 0l20.15-11.626 20.15 11.626v23.249L1195 398.982l-20.15-11.626v-23.249zm180 0l20.15-11.626 20.15 11.626v23.249L1375 398.982l-20.15-11.626v-23.249zm-1260-77.944L115 274.537l20.151 11.626v23.249L115 321.038l-20.15-11.626v-23.249zm269.999 0L385 274.537l20.151 11.626v23.249L385 321.038l-20.151-11.626v-23.249zm90 0L475 274.537l20.151 11.626v23.249L475 321.038l-20.151-11.626v-23.249zm180 0L655 274.537l20.151 11.626v23.249L655 321.038l-20.151-11.626v-23.249zm450.001 0l20.15-11.626 20.15 11.626v23.249L1105 321.038l-20.15-11.626v-23.249zm90 0l20.15-11.626 20.15 11.626v23.249L1195 321.038l-20.15-11.626v-23.249zm90 0l20.15-11.626 20.15 11.626v23.249L1285 321.038l-20.15-11.626v-23.249zm90 0l20.15-11.626 20.15 11.626v23.249L1375 321.038l-20.15-11.626v-23.249zm360 0l20.15-11.626 20.15 11.626v23.249L1735 321.038l-20.15-11.626v-23.249zm-1620-77.945L115 196.593l20.151 11.625v23.25L115 243.093l-20.15-11.625v-23.25zm179.999 0L295 196.593l20.151 11.625v23.25L295 243.093l-20.151-11.625v-23.25zm90 0L385 196.593l20.151 11.625v23.25L385 243.093l-20.151-11.625v-23.25zm180 0L565 196.593l20.151 11.625v23.25L565 243.093l-20.151-11.625v-23.25zm180 0L745 196.593l20.151 11.625v23.25L745 243.093l-20.151-11.625v-23.25zm90 0L835 196.593l20.151 11.625v23.25L835 243.093l-20.151-11.625v-23.25zm90 0L925 196.593l20.151 11.625v23.25L925 243.093l-20.151-11.625v-23.25zm180.001 0l20.15-11.625 20.15 11.625v23.25L1105 243.093l-20.15-11.625v-23.25zm450 0l20.15-11.625 20.15 11.625v23.25L1555 243.093l-20.15-11.625v-23.25zm180 0l20.15-11.625 20.15 11.625v23.25L1735 243.093l-20.15-11.625v-23.25zm-1710-77.944L25 118.648l20.15 11.626v23.249L25 165.149 4.85 153.523v-23.249zm90 0L115 118.648l20.151 11.626v23.249L115 165.149l-20.15-11.626v-23.249zm89.999 0L205 118.648l20.151 11.626v23.249L205 165.149l-20.151-11.626v-23.249zm90 0L295 118.648l20.151 11.626v23.249L295 165.149l-20.151-11.626v-23.249zm90 0L385 118.648l20.151 11.626v23.249L385 165.149l-20.151-11.626v-23.249zm90 0L475 118.648l20.151 11.626v23.249L475 165.149l-20.151-11.626v-23.249zm90 0L565 118.648l20.151 11.626v23.249L565 165.149l-20.151-11.626v-23.249zm360 0L925 118.648l20.151 11.626v23.249L925 165.149l-20.151-11.626v-23.249zm180.001 0l20.15-11.626 20.15 11.626v23.249L1105 165.149l-20.15-11.626v-23.249zm270 0l20.15-11.626 20.15 11.626v23.249L1375 165.149l-20.15-11.626v-23.249zm90 0l20.15-11.626 20.15 11.626v23.249L1465 165.149l-20.15-11.626v-23.249zM364.849 52.33L385 40.704l20.151 11.626v23.25L385 87.204l-20.151-11.626V52.33zm90 0L475 40.704l20.151 11.626v23.25L475 87.204l-20.151-11.626V52.33zm450 0L925 40.704l20.151 11.626v23.25L925 87.204l-20.151-11.626V52.33zm90 0L1015 40.704l20.15 11.626v23.25L1015 87.204l-20.151-11.626V52.33zm270.001 0L1285 40.704l20.15 11.626v23.25L1285 87.204l-20.15-11.626V52.33zm-1238 584.582L47 625.286l20.15 11.626v23.25L47 671.787l-20.15-11.625v-23.25zm314.999 0L362 625.286l20.151 11.626v23.25L362 671.787l-20.151-11.625v-23.25zm180 0L542 625.286l20.151 11.626v23.25L542 671.787l-20.151-11.625v-23.25zm360 0L902 625.286l20.151 11.626v23.25L902 671.787l-20.151-11.625v-23.25zm180.001 0l20.15-11.626 20.15 11.626v23.25L1082 671.787l-20.15-11.625v-23.25zm0-78.444l20.15-11.626 20.15 11.626v23.249L1082 593.343l-20.15-11.626v-23.249zm90 78.444l20.15-11.626 20.15 11.626v23.25L1172 671.787l-20.15-11.625v-23.25zm90 0l20.15-11.626 20.15 11.626v23.25L1262 671.787l-20.15-11.625v-23.25zm90 0l20.15-11.626 20.15 11.626v23.25L1352 671.787l-20.15-11.625v-23.25zm180 0l20.15-11.626 20.15 11.626v23.25L1532 671.787l-20.15-11.625v-23.25zm90 0l20.15-11.626 20.15 11.626v23.25L1622 671.787l-20.15-11.625v-23.25zm90-233.833l20.15-11.626 20.15 11.626v23.25L1712 437.954l-20.15-11.625v-23.25zm0-155.889l20.15-11.625 20.15 11.625v23.25L1712 282.066l-20.15-11.626v-23.25zm0-155.888L1712 79.676l20.15 11.626v23.249L1712 126.177l-20.15-11.626v-23.25zm0-77.945L1712 1.732l20.15 11.625v23.25L1712 48.233l-20.15-11.626v-23.25zm-90 0L1622 1.732l20.15 11.625v23.25L1622 48.233l-20.15-11.626v-23.25zm-90 0L1532 1.732l20.15 11.625v23.25L1532 48.233l-20.15-11.626v-23.25zm-945.001.5L587 2.232l20.151 11.625v23.25L587 48.733l-20.151-11.626v-23.25zm675.001 0L1262 2.232l20.15 11.625v23.25L1262 48.733l-20.15-11.626v-23.25zm-180 0L1082 2.232l20.15 11.625v23.25L1082 48.733l-20.15-11.626v-23.25zm-765.001 0L317 2.232l20.151 11.625v23.25L317 48.733l-20.151-11.626v-23.25zm675 0L992 2.232l20.15 11.625v23.25L992 48.733l-20.151-11.626v-23.25zm-765 0L227 2.232l20.151 11.625v23.25L227 48.733l-20.151-11.626v-23.25zm675 0L902 2.232l20.151 11.625v23.25L902 48.733l-20.151-11.626v-23.25zm-90 0L812 2.232l20.151 11.625v23.25L812 48.733l-20.151-11.626v-23.25zM71.85 91.302L92 79.676l20.151 11.626v23.249L92 126.177l-20.15-11.626v-23.25zm0 155.888L92 235.565l20.151 11.625v23.25L92 282.066 71.85 270.44v-23.25zm89.999 311.778L182 547.342l20.151 11.626v23.249L182 593.843l-20.151-11.626v-23.249zm90 0L272 547.342l20.151 11.626v23.249L272 593.843l-20.151-11.626v-23.249zm90 0L362 547.342l20.151 11.626v23.249L362 593.843l-20.151-11.626v-23.249zm540 0L902 547.342l20.151 11.626v23.249L902 593.843l-20.151-11.626v-23.249zm450.001 0l20.15-11.626 20.15 11.626v23.249L1352 593.843l-20.15-11.626v-23.249zm90 0l20.15-11.626 20.15 11.626v23.249L1442 593.843l-20.15-11.626v-23.249zm180-233.833l20.15-11.626 20.15 11.626v23.249L1622 360.01l-20.15-11.626v-23.249zm0-77.945l20.15-11.625 20.15 11.625v23.25L1622 282.066l-20.15-11.626v-23.25zm0-77.944L1622 157.62l20.15 11.626v23.25L1622 204.121l-20.15-11.625v-23.25zm-180-77.944L1442 79.676l20.15 11.626v23.249L1442 126.177l-20.15-11.626v-23.25zm-90-77.445L1352 2.232l20.15 11.625v23.25L1352 48.733l-20.15-11.626v-23.25zm90 0L1442 2.232l20.15 11.625v23.25L1442 48.733l-20.15-11.626v-23.25zm-270 77.445L1172 79.676l20.15 11.626v23.249L1172 126.177l-20.15-11.626v-23.25zm-90 0L1082 79.676l20.15 11.626v23.249L1082 126.177l-20.15-11.626v-23.25zm-450.001 0L632 79.676l20.151 11.626v23.249L632 126.177l-20.151-11.626v-23.25zm-90 0L542 79.676l20.151 11.626v23.249L542 126.177l-20.151-11.626v-23.25zm-180 0L362 79.676l20.151 11.626v23.249L362 126.177l-20.151-11.626v-23.25zm-180 155.888L182 235.565l20.151 11.625v23.25L182 282.066l-20.151-11.626v-23.25zm0 77.945L182 313.509l20.151 11.626v23.249L182 360.01l-20.151-11.626v-23.249zm0 77.944L182 391.453l20.151 11.626v23.25L182 437.954l-20.151-11.625v-23.25zm0 77.944L182 469.398l20.151 11.625v23.25L182 515.899l-20.151-11.626v-23.25zm360 0L542 469.398l20.151 11.625v23.25L542 515.899l-20.151-11.626v-23.25zm180 0L722 469.398l20.151 11.625v23.25L722 515.899l-20.151-11.626v-23.25zm180 0L902 469.398l20.151 11.625v23.25L902 515.899l-20.151-11.626v-23.25zm90 0L992 469.398l20.15 11.625v23.25L992 515.899l-20.151-11.626v-23.25zm180.001 0l20.15-11.625 20.15 11.625v23.25L1172 515.899l-20.15-11.626v-23.25zm90 0l20.15-11.625 20.15 11.625v23.25L1262 515.899l-20.15-11.626v-23.25zm90 0l20.15-11.625 20.15 11.625v23.25L1352 515.899l-20.15-11.626v-23.25zm180-233.833l20.15-11.625 20.15 11.625v23.25L1532 282.066l-20.15-11.626v-23.25zm-270-77.944L1262 157.62l20.15 11.626v23.25L1262 204.121l-20.15-11.625v-23.25zm-450.001 0L812 157.62l20.151 11.626v23.25L812 204.121l-20.151-11.625v-23.25zm-360 0L452 157.62l20.151 11.626v23.25L452 204.121l-20.151-11.625v-23.25zm-180 155.889L272 313.509l20.151 11.626v23.249L272 360.01l-20.151-11.626v-23.249zm0 77.944L272 391.453l20.151 11.626v23.25L272 437.954l-20.151-11.625v-23.25zm90 0L362 391.453l20.151 11.626v23.25L362 437.954l-20.151-11.625v-23.25zm270 0L632 391.453l20.151 11.626v23.25L632 437.954l-20.151-11.625v-23.25zm180 0L812 391.453l20.151 11.626v23.25L812 437.954l-20.151-11.625v-23.25zm180 0L992 391.453l20.15 11.626v23.25L992 437.954l-20.151-11.625v-23.25zm180.001 0l20.15-11.626 20.15 11.626v23.25L1172 437.954l-20.15-11.625v-23.25zm90 0l20.15-11.626 20.15 11.626v23.25L1262 437.954l-20.15-11.625v-23.25zm90 0l20.15-11.626 20.15 11.626v23.25L1352 437.954l-20.15-11.625v-23.25zm0-155.889l20.15-11.625 20.15 11.625v23.25L1352 282.066l-20.15-11.626v-23.25zm-810.001 0L542 235.565l20.151 11.625v23.25L542 282.066l-20.151-11.626v-23.25zm-90 0L452 235.565l20.151 11.625v23.25L452 282.066l-20.151-11.626v-23.25zm-90 0L362 235.565l20.151 11.625v23.25L362 282.066l-20.151-11.626v-23.25zm270 77.945L632 313.509l20.151 11.626v23.249L632 360.01l-20.151-11.626v-23.249zm-405 311.777L227 625.286l20.151 11.626v23.25L227 671.787l-20.151-11.625v-23.25zm90 0L317 625.286l20.151 11.626v23.25L317 671.787l-20.151-11.625v-23.25zm90 0L407 625.286l20.151 11.626v23.25L407 671.787l-20.151-11.625v-23.25zm180 0L587 625.286l20.151 11.626v23.25L587 671.787l-20.151-11.625v-23.25zm90 0L677 625.286l20.151 11.626v23.25L677 671.787l-20.151-11.625v-23.25zm180 0L857 625.286l20.151 11.626v23.25L857 671.787l-20.151-11.625v-23.25zm136 0L993 625.286l20.15 11.626v23.25L993 671.787l-20.151-11.625v-23.25zm44.001 0l20.15-11.626 20.15 11.626v23.25L1037 671.787l-20.15-11.625v-23.25zm180 0l20.15-11.626 20.15 11.626v23.25L1217 671.787l-20.15-11.625v-23.25zm180 0l20.15-11.626 20.15 11.626v23.25L1397 671.787l-20.15-11.625v-23.25zm270 0l20.15-11.626 20.15 11.626v23.25L1667 671.787l-20.15-11.625v-23.25zm-1620-77.944L47 547.342l20.15 11.626v23.249L47 593.843l-20.15-11.626v-23.249zm1350 0l20.15-11.626 20.15 11.626v23.249L1397 593.843l-20.15-11.626v-23.249zm90 0l20.15-11.626 20.15 11.626v23.249L1487 593.843l-20.15-11.626v-23.249zm270 0l20.15-11.626 20.15 11.626v23.249L1757 593.843l-20.15-11.626v-23.249zm-1710-77.945L47 469.398l20.15 11.625v23.25L47 515.899l-20.15-11.626v-23.25zm89.999 0L137 469.398l20.151 11.625v23.25L137 515.899l-20.151-11.626v-23.25zm180 0L317 469.398l20.151 11.625v23.25L317 515.899l-20.151-11.626v-23.25zm360 0L677 469.398l20.151 11.625v23.25L677 515.899l-20.151-11.626v-23.25zm90 0L767 469.398l20.151 11.625v23.25L767 515.899l-20.151-11.626v-23.25zm630.001 0l20.15-11.625 20.15 11.625v23.25L1397 515.899l-20.15-11.626v-23.25zm180 0l20.15-11.625 20.15 11.625v23.25L1577 515.899l-20.15-11.626v-23.25zm90 0l20.15-11.625 20.15 11.625v23.25L1667 515.899l-20.15-11.626v-23.25zM386.849 403.079L407 391.453l20.151 11.626v23.25L407 437.954l-20.151-11.625v-23.25zm720.001 0l20.15-11.626 20.15 11.626v23.25L1127 437.954l-20.15-11.625v-23.25zm270 0l20.15-11.626 20.15 11.626v23.25L1397 437.954l-20.15-11.625v-23.25zm360 0l20.15-11.626 20.15 11.626v23.25L1757 437.954l-20.15-11.625v-23.25zm-1710-77.944L47 313.509l20.15 11.626v23.249L47 360.01l-20.15-11.626v-23.249zm629.999 0L677 313.509l20.151 11.626v23.249L677 360.01l-20.151-11.626v-23.249zm900.001 0l20.15-11.626 20.15 11.626v23.249L1577 360.01l-20.15-11.626v-23.249zm90 0l20.15-11.626 20.15 11.626v23.249L1667 360.01l-20.15-11.626v-23.249zm-1620-77.945L47 235.565l20.15 11.625v23.25L47 282.066 26.85 270.44v-23.25zm89.999 0L137 235.565l20.151 11.625v23.25L137 282.066l-20.151-11.626v-23.25zm1080.001 0l20.15-11.625 20.15 11.625v23.25L1217 282.066l-20.15-11.626v-23.25zm90 0l20.15-11.625 20.15 11.625v23.25L1307 282.066l-20.15-11.626v-23.25zm90 0l20.15-11.625 20.15 11.625v23.25L1397 282.066l-20.15-11.626v-23.25zm-1350-77.944L47 157.62l20.15 11.626v23.25L47 204.121l-20.15-11.625v-23.25zm179.999 0L227 157.62l20.151 11.626v23.25L227 204.121l-20.151-11.625v-23.25zm90 0L317 157.62l20.151 11.626v23.25L317 204.121l-20.151-11.625v-23.25zm450 0L767 157.62l20.151 11.626v23.25L767 204.121l-20.151-11.625v-23.25zm450.001 0L1217 157.62l20.15 11.626v23.25L1217 204.121l-20.15-11.625v-23.25zm-1170-77.944L47 79.676l20.15 11.626v23.249L47 126.177l-20.15-11.626v-23.25zm359.999 0L407 79.676l20.151 11.626v23.249L407 126.177l-20.151-11.626v-23.25zm450 0L857 79.676l20.151 11.626v23.249L857 126.177l-20.151-11.626v-23.25zm180.001 0L1037 79.676l20.15 11.626v23.249L1037 126.177l-20.15-11.626v-23.25zm90 0L1127 79.676l20.15 11.626v23.249L1127 126.177l-20.15-11.626v-23.25zm270 0L1397 79.676l20.15 11.626v23.249L1397 126.177l-20.15-11.626v-23.25zm90 0L1487 79.676l20.15 11.626v23.249L1487 126.177l-20.15-11.626v-23.25zm90 0L1577 79.676l20.15 11.626v23.249L1577 126.177l-20.15-11.626v-23.25zm90 0L1667 79.676l20.15 11.626v23.249L1667 126.177l-20.15-11.626v-23.25zm-1575-77.445L92 2.232l20.151 11.625v23.25L92 48.733 71.85 37.107v-23.25zm674.999 0L767 2.232l20.151 11.625v23.25L767 48.733l-20.151-11.626v-23.25zm-405 0L362 2.232l20.151 11.625v23.25L362 48.733l-20.151-11.626v-23.25zm675.001 0L1037 2.232l20.15 11.625v23.25L1037 48.733l-20.15-11.626v-23.25zm-585.001 0L452 2.232l20.151 11.625v23.25L452 48.733l-20.151-11.626v-23.25zm675.001 0L1127 2.232l20.15 11.625v23.25L1127 48.733l-20.15-11.626v-23.25zm-585.001 0L542 2.232l20.151 11.625v23.25L542 48.733l-20.151-11.626v-23.25zm675.001 0L1217 2.232l20.15 11.625v23.25L1217 48.733l-20.15-11.626v-23.25zm-585.001 0L632 2.232l20.151 11.625v23.25L632 48.733l-20.151-11.626v-23.25zM23.15 636.912L4.5 626.152v44.77l18.65-10.76v-23.25zm0-233.833L4.5 392.319v44.77l18.65-10.76v-23.25zm0-77.944L4.5 314.374v44.771l18.65-10.761v-23.249zm0-155.889L4.5 158.486v44.77l18.65-10.76v-23.25zM139.849 52.33L160 40.704l20.151 11.626v23.25L160 87.204l-20.151-11.626V52.33zm360 0L520 40.704l20.151 11.626v23.25L520 87.204l-20.151-11.626V52.33zm180 0L700 40.704l20.151 11.626v23.25L700 87.204l-20.151-11.626V52.33zm90 0L790 40.704l20.151 11.626v23.25L790 87.204l-20.151-11.626V52.33zm540.001 0L1330 40.704l20.15 11.626v23.25L1330 87.204l-20.15-11.626V52.33zm-630.001 77.944L700 118.648l20.151 11.626v23.249L700 165.149l-20.151-11.626v-23.249zm180 0L880 118.648l20.151 11.626v23.249L880 165.149l-20.151-11.626v-23.249zm360.001 0l20.15-11.626 20.15 11.626v23.249L1240 165.149l-20.15-11.626v-23.249zm450 0l20.15-11.626 20.15 11.626v23.249L1690 165.149l-20.15-11.626v-23.249zm90 0l20.15-11.626 20.15 11.626v23.249L1780 165.149l-20.15-11.626v-23.249zm-630 77.944l20.15-11.625 20.15 11.625v23.25L1150 243.093l-20.15-11.625v-23.25zm-540.001 77.945L610 274.537l20.151 11.626v23.249L610 321.038l-20.151-11.626v-23.249zm450.001 0l20.15-11.626 20.15 11.626v23.249L1060 321.038l-20.15-11.626v-23.249zm720 0l20.15-11.626 20.15 11.626v23.249L1780 321.038l-20.15-11.626v-23.249zM499.849 364.107L520 352.481l20.151 11.626v23.249L520 398.982l-20.151-11.626v-23.249zm540.001 0l20.15-11.626 20.15 11.626v23.249L1060 398.982l-20.15-11.626v-23.249zm450 0l20.15-11.626 20.15 11.626v23.249L1510 398.982l-20.15-11.626v-23.249zM139.849 442.051L160 430.426l20.151 11.625v23.25L160 476.926l-20.151-11.625v-23.25zm90 0L250 430.426l20.151 11.625v23.25L250 476.926l-20.151-11.625v-23.25zm270 0L520 430.426l20.151 11.625v23.25L520 476.926l-20.151-11.625v-23.25zm90 0L610 430.426l20.151 11.625v23.25L610 476.926l-20.151-11.625v-23.25zm180 0L790 430.426l20.151 11.625v23.25L790 476.926l-20.151-11.625v-23.25zm90 0L880 430.426l20.151 11.625v23.25L880 476.926l-20.151-11.625v-23.25zm90 0L970 430.426l20.151 11.625v23.25L970 476.926l-20.151-11.625v-23.25zm90.001 0l20.15-11.625 20.15 11.625v23.25L1060 476.926l-20.15-11.625v-23.25zm-810.001 77.945L250 508.37l20.151 11.626v23.249L250 554.871l-20.151-11.626v-23.249zm360 0L610 508.37l20.151 11.626v23.249L610 554.871l-20.151-11.626v-23.249zm450.001 0L1060 508.37l20.15 11.626v23.249L1060 554.871l-20.15-11.626v-23.249zm90 0L1150 508.37l20.15 11.626v23.249L1150 554.871l-20.15-11.626v-23.249zm-1080 77.944L70 586.314l20.15 11.626v23.249L70 632.815l-20.15-11.626V597.94zm-23-584.083L47 2.232l20.15 11.625v23.25L47 48.733 26.85 37.107v-23.25zM139.849 597.94L160 586.314l20.151 11.626v23.249L160 632.815l-20.151-11.626V597.94zm270 0L430 586.314l20.151 11.626v23.249L430 632.815l-20.151-11.626V597.94zm180 .499L610 586.814l20.151 11.625v23.25L610 633.315l-20.151-11.626v-23.25zm202 38.973L812 625.786l20.151 11.626v23.249L812 672.287l-20.151-11.626v-23.249zm428.001-39.472l20.15-11.626 20.15 11.626v23.249L1240 632.815l-20.15-11.626V597.94z" stroke="#0075FF" stroke-width="3"/></svg>